<svg xmlns="http://www.w3.org/2000/svg" viewBox="0 0 38.5 38.5"><title>avatar pro</title><circle cx="19.2" cy="19.2" r="18.9" style="fill:#ebebeb;stroke:#ebebeb;stroke-linecap:round;stroke-linejoin:round;stroke-width:0.75px"/><path d="M14.8,26.2H11.2a8.7,8.7,0,0,0-4.5,1.3,15.7,15.7,0,0,0,22.1,3A14.4,14.4,0,0,0,32,27.2a9.1,9.1,0,0,0-4-1H24.4a2,2,0,0,1-2-2v-.8a1.5,1.5,0,0,1,.7-1.4,6.5,6.5,0,0,0,2.7-5.1V12.8a6.3,6.3,0,0,0-5.3-6.3,6.2,6.2,0,0,0-7.1,5.2c0,.3-.1.6-.1.9v4.3A6.3,6.3,0,0,0,16.1,22a1.7,1.7,0,0,1,.7,1.4v.8A2,2,0,0,1,14.8,26.2Z" style="fill:#fff;stroke:#fff;stroke-linecap:round;stroke-linejoin:round;stroke-width:0.75px"/><path d="M10.6,17.7h-.3a1.2,1.2,0,0,0-.9.9h0a.9.9,0,0,1,.7-.3.7.7,0,0,1,.7.8.8.8,0,0,1-.8.9c-.6,0-.9-.4-.9-1.1a1.4,1.4,0,0,1,1.2-1.5h.3Zm-.1,1.5c0-.4-.2-.6-.5-.6a.6.6,0,0,0-.6.3h0c0,.5.2.8.6.8A.6.6,0,0,0,10.5,19.2Z" style="fill:#4c4b4b"/><path d="M12.9,18.7c0,.9-.3,1.3-.9,1.3s-.9-.4-.9-1.3.4-1.3.9-1.3S12.9,17.9,12.9,18.7Zm-1.4,0c0,.7.2,1.1.5,1.1s.5-.4.5-1.1-.1-1.1-.5-1.1S11.5,18,11.5,18.7Z" style="fill:#4c4b4b"/><path d="M14.9,18.7c0,.9-.3,1.3-.9,1.3s-.8-.4-.8-1.3.3-1.3.9-1.3S14.9,17.9,14.9,18.7Zm-1.4,0c0,.7.2,1.1.6,1.1s.5-.4.5-1.1-.2-1.1-.5-1.1S13.5,18,13.5,18.7Z" style="fill:#4c4b4b"/><path d="M16.4,18.1l.3.4c0,.1.1.2.2.3h0c0-.1.1-.2.2-.3l.2-.4h.4l-.6.9.6,1h-.4l-.3-.4a.8.8,0,0,0-.2-.4h0a.8.8,0,0,1-.2.4l-.3.4H16l.6-1-.6-.9Z" style="fill:#4c4b4b"/><path d="M20.3,17.7H20a1.2,1.2,0,0,0-.9.9h0a.9.9,0,0,1,.7-.3.7.7,0,0,1,.7.8.8.8,0,0,1-.8.9c-.6,0-.9-.4-.9-1.1A1.4,1.4,0,0,1,20,17.4h.3Zm-.1,1.5c0-.4-.2-.6-.5-.6s-.5.1-.5.3a.1.1,0,0,0-.1.1c0,.5.2.8.6.8A.6.6,0,0,0,20.2,19.2Z" style="fill:#4c4b4b"/><path d="M22.6,18.7c0,.9-.3,1.3-.9,1.3s-.9-.4-.9-1.3.4-1.3.9-1.3S22.6,17.9,22.6,18.7Zm-1.4,0c0,.7.2,1.1.5,1.1s.5-.4.5-1.1-.1-1.1-.5-1.1S21.2,18,21.2,18.7Z" style="fill:#4c4b4b"/><path d="M24.6,18.7c0,.9-.3,1.3-.9,1.3s-.8-.4-.8-1.3.3-1.3.9-1.3S24.6,17.9,24.6,18.7Zm-1.4,0c0,.7.2,1.1.6,1.1s.5-.4.5-1.1-.2-1.1-.5-1.1S23.2,18,23.2,18.7Z" style="fill:#4c4b4b"/><path d="M25.9,18.7v-.6h.3v.3h0a1,1,0,0,1,.7-.4,1,1,0,0,1,0,2,.6.6,0,0,1-.6-.3h0v1.1h-.4Zm.4.5v.2a.7.7,0,0,0,.5.4c.4,0,.6-.3.6-.8s-.2-.7-.6-.7a.7.7,0,0,0-.5.4v.5Z" style="fill:#4c4b4b"/><path d="M28.3,18.1l.3.4.2.3h0l.2-.3.3-.4h.3L29,19l.7,1h-.4l-.3-.4a.8.8,0,0,1-.2-.4h0l-.3.4-.2.4h-.4l.7-1-.7-.9Z" style="fill:#4c4b4b"/></svg>