<svg xmlns="http://www.w3.org/2000/svg" xmlns:xlink="http://www.w3.org/1999/xlink" width="1080" zoomAndPan="magnify" viewBox="0 0 810 809.999993" height="1080" preserveAspectRatio="xMidYMid meet" version="1.0"><defs><clipPath id="644caebe36"><path d="M 0 151.691406 L 810 151.691406 L 810 657.941406 L 0 657.941406 Z M 0 151.691406 " clip-rule="nonzero"/></clipPath><clipPath id="55dca1db85"><path d="M 157 329 L 623 329 L 623 480 L 157 480 Z M 157 329 " clip-rule="nonzero"/></clipPath><clipPath id="af5df7d347"><path d="M 397.851562 377.578125 C 397.589844 398.503906 416.523438 410.199219 430.777344 417.140625 C 445.4375 424.261719 450.359375 428.835938 450.320312 435.210938 C 450.199219 444.964844 438.613281 449.273438 427.78125 449.375 C 408.867188 449.679688 397.871094 444.273438 389.144531 440.1875 L 382.320312 472.039062 C 391.089844 476.085938 407.328125 479.605469 424.175781 479.769531 C 463.703125 479.769531 489.5625 460.261719 489.683594 430.03125 C 489.847656 391.582031 436.589844 389.558594 437.035156 372.398438 C 437.15625 367.199219 442.117188 361.652344 453.011719 360.257812 C 465.957031 359.042969 478.304688 361.21875 490.050781 366.792969 L 496.652344 336.015625 C 485.300781 331.75 473.5625 329.597656 461.4375 329.558594 C 424.238281 329.558594 398.054688 349.332031 397.851562 377.621094 M 560.214844 332.171875 C 558.5 332.15625 556.820312 332.394531 555.175781 332.886719 C 553.53125 333.375 551.996094 334.09375 550.570312 335.046875 C 549.140625 335.996094 547.886719 337.136719 546.800781 338.460938 C 545.714844 339.789062 544.847656 341.246094 544.199219 342.835938 L 487.742188 477.664062 L 527.230469 477.664062 L 535.085938 455.949219 L 583.363281 455.949219 L 587.917969 477.664062 L 622.726562 477.664062 L 592.351562 332.273438 L 560.214844 332.273438 M 565.746094 371.546875 L 577.125 426.183594 L 545.917969 426.183594 L 565.746094 371.546875 M 349.960938 332.171875 L 318.835938 477.664062 L 356.398438 477.664062 L 387.585938 332.171875 L 349.960938 332.171875 M 294.292969 332.171875 L 255.148438 431.121094 L 239.316406 347.003906 C 238.992188 344.9375 238.320312 342.988281 237.296875 341.164062 C 236.277344 339.335938 234.972656 337.742188 233.378906 336.382812 C 231.789062 335.023438 230.011719 333.980469 228.046875 333.253906 C 226.082031 332.53125 224.054688 332.167969 221.960938 332.171875 L 157.949219 332.171875 L 157.058594 336.398438 C 170.101562 339.253906 185.066406 343.847656 194.117188 348.761719 C 199.644531 351.777344 201.222656 354.410156 203.046875 361.550781 L 233.058594 477.664062 L 272.828125 477.664062 L 333.820312 332.171875 L 294.292969 332.171875 " clip-rule="nonzero"/></clipPath><clipPath id="735e8c7004"><path d="M 108.195312 347.46875 L 567.101562 178.582031 L 671.511719 461.878906 L 212.625 630.765625 " clip-rule="nonzero"/></clipPath><linearGradient x1="326.91974" gradientTransform="matrix(849.915153, -312.786647, -313.011107, -849.305723, 514493.965557, 2252219.700536)" y1="2530.8301" x2="327.459558" gradientUnits="userSpaceOnUse" y2="2530.8301" id="87187e5784"><stop stop-opacity="1" stop-color="rgb(13.299561%, 13.699341%, 34.098816%)" offset="0"/><stop stop-opacity="1" stop-color="rgb(13.304138%, 13.757324%, 34.214783%)" offset="0.0625"/><stop stop-opacity="1" stop-color="rgb(13.313293%, 13.883972%, 34.469604%)" offset="0.0703125"/><stop stop-opacity="1" stop-color="rgb(13.323975%, 14.024353%, 34.750366%)" offset="0.078125"/><stop stop-opacity="1" stop-color="rgb(13.334656%, 14.164734%, 35.031128%)" offset="0.0859375"/><stop stop-opacity="1" stop-color="rgb(13.346863%, 14.305115%, 35.31189%)" offset="0.09375"/><stop stop-opacity="1" stop-color="rgb(13.357544%, 14.445496%, 35.592651%)" offset="0.101563"/><stop stop-opacity="1" stop-color="rgb(13.368225%, 14.585876%, 35.873413%)" offset="0.109375"/><stop stop-opacity="1" stop-color="rgb(13.378906%, 14.726257%, 36.154175%)" offset="0.117188"/><stop stop-opacity="1" stop-color="rgb(13.389587%, 14.866638%, 36.433411%)" offset="0.125"/><stop stop-opacity="1" stop-color="rgb(13.401794%, 15.007019%, 36.714172%)" offset="0.132813"/><stop stop-opacity="1" stop-color="rgb(13.412476%, 15.1474%, 36.994934%)" offset="0.140625"/><stop stop-opacity="1" stop-color="rgb(13.423157%, 15.287781%, 37.275696%)" offset="0.148438"/><stop stop-opacity="1" stop-color="rgb(13.433838%, 15.428162%, 37.556458%)" offset="0.15625"/><stop stop-opacity="1" stop-color="rgb(13.444519%, 15.568542%, 37.837219%)" offset="0.164062"/><stop stop-opacity="1" stop-color="rgb(13.456726%, 15.708923%, 38.117981%)" offset="0.171875"/><stop stop-opacity="1" stop-color="rgb(13.467407%, 15.849304%, 38.397217%)" offset="0.179688"/><stop stop-opacity="1" stop-color="rgb(13.478088%, 15.988159%, 38.677979%)" offset="0.1875"/><stop stop-opacity="1" stop-color="rgb(13.48877%, 16.12854%, 38.95874%)" offset="0.195313"/><stop stop-opacity="1" stop-color="rgb(13.500977%, 16.268921%, 39.239502%)" offset="0.203125"/><stop stop-opacity="1" stop-color="rgb(13.511658%, 16.409302%, 39.520264%)" offset="0.210938"/><stop stop-opacity="1" stop-color="rgb(13.522339%, 16.549683%, 39.801025%)" offset="0.21875"/><stop stop-opacity="1" stop-color="rgb(13.53302%, 16.690063%, 40.081787%)" offset="0.226563"/><stop stop-opacity="1" stop-color="rgb(13.543701%, 16.830444%, 40.361023%)" offset="0.234375"/><stop stop-opacity="1" stop-color="rgb(13.555908%, 16.970825%, 40.641785%)" offset="0.242188"/><stop stop-opacity="1" stop-color="rgb(13.566589%, 17.111206%, 40.922546%)" offset="0.25"/><stop stop-opacity="1" stop-color="rgb(13.577271%, 17.251587%, 41.203308%)" offset="0.257813"/><stop stop-opacity="1" stop-color="rgb(13.587952%, 17.391968%, 41.48407%)" offset="0.265625"/><stop stop-opacity="1" stop-color="rgb(13.598633%, 17.532349%, 41.764832%)" offset="0.273438"/><stop stop-opacity="1" stop-color="rgb(13.61084%, 17.672729%, 42.045593%)" offset="0.28125"/><stop stop-opacity="1" stop-color="rgb(13.621521%, 17.81311%, 42.324829%)" offset="0.289062"/><stop stop-opacity="1" stop-color="rgb(13.632202%, 17.951965%, 42.605591%)" offset="0.296875"/><stop stop-opacity="1" stop-color="rgb(13.642883%, 18.092346%, 42.886353%)" offset="0.304688"/><stop stop-opacity="1" stop-color="rgb(13.653564%, 18.232727%, 43.167114%)" offset="0.3125"/><stop stop-opacity="1" stop-color="rgb(13.665771%, 18.373108%, 43.447876%)" offset="0.320313"/><stop stop-opacity="1" stop-color="rgb(13.676453%, 18.513489%, 43.728638%)" offset="0.328125"/><stop stop-opacity="1" stop-color="rgb(13.687134%, 18.65387%, 44.009399%)" offset="0.335938"/><stop stop-opacity="1" stop-color="rgb(13.697815%, 18.79425%, 44.290161%)" offset="0.34375"/><stop stop-opacity="1" stop-color="rgb(13.708496%, 18.934631%, 44.569397%)" offset="0.351562"/><stop stop-opacity="1" stop-color="rgb(13.720703%, 19.075012%, 44.850159%)" offset="0.359375"/><stop stop-opacity="1" stop-color="rgb(13.731384%, 19.215393%, 45.13092%)" offset="0.367188"/><stop stop-opacity="1" stop-color="rgb(13.742065%, 19.355774%, 45.411682%)" offset="0.375"/><stop stop-opacity="1" stop-color="rgb(13.752747%, 19.496155%, 45.692444%)" offset="0.382813"/><stop stop-opacity="1" stop-color="rgb(13.764954%, 19.636536%, 45.973206%)" offset="0.390625"/><stop stop-opacity="1" stop-color="rgb(13.775635%, 19.776917%, 46.253967%)" offset="0.398438"/><stop stop-opacity="1" stop-color="rgb(13.786316%, 19.915771%, 46.533203%)" offset="0.40625"/><stop stop-opacity="1" stop-color="rgb(13.796997%, 20.056152%, 46.813965%)" offset="0.414063"/><stop stop-opacity="1" stop-color="rgb(13.807678%, 20.196533%, 47.094727%)" offset="0.421875"/><stop stop-opacity="1" stop-color="rgb(13.819885%, 20.336914%, 47.375488%)" offset="0.429688"/><stop stop-opacity="1" stop-color="rgb(13.830566%, 20.477295%, 47.65625%)" offset="0.4375"/><stop stop-opacity="1" stop-color="rgb(13.841248%, 20.617676%, 47.937012%)" offset="0.445313"/><stop stop-opacity="1" stop-color="rgb(13.851929%, 20.758057%, 48.217773%)" offset="0.453125"/><stop stop-opacity="1" stop-color="rgb(13.86261%, 20.898438%, 48.497009%)" offset="0.460938"/><stop stop-opacity="1" stop-color="rgb(13.874817%, 21.038818%, 48.777771%)" offset="0.46875"/><stop stop-opacity="1" stop-color="rgb(13.885498%, 21.179199%, 49.058533%)" offset="0.476562"/><stop stop-opacity="1" stop-color="rgb(13.896179%, 21.31958%, 49.339294%)" offset="0.484375"/><stop stop-opacity="1" stop-color="rgb(13.90686%, 21.459961%, 49.620056%)" offset="0.492188"/><stop stop-opacity="1" stop-color="rgb(13.917542%, 21.600342%, 49.900818%)" offset="0.5"/><stop stop-opacity="1" stop-color="rgb(13.929749%, 21.740723%, 50.18158%)" offset="0.507812"/><stop stop-opacity="1" stop-color="rgb(13.94043%, 21.881104%, 50.460815%)" offset="0.515625"/><stop stop-opacity="1" stop-color="rgb(13.951111%, 22.019958%, 50.741577%)" offset="0.523438"/><stop stop-opacity="1" stop-color="rgb(13.961792%, 22.160339%, 51.022339%)" offset="0.53125"/><stop stop-opacity="1" stop-color="rgb(13.973999%, 22.30072%, 51.303101%)" offset="0.539062"/><stop stop-opacity="1" stop-color="rgb(13.98468%, 22.441101%, 51.583862%)" offset="0.546875"/><stop stop-opacity="1" stop-color="rgb(13.995361%, 22.581482%, 51.864624%)" offset="0.554687"/><stop stop-opacity="1" stop-color="rgb(14.006042%, 22.721863%, 52.145386%)" offset="0.5625"/><stop stop-opacity="1" stop-color="rgb(14.016724%, 22.862244%, 52.424622%)" offset="0.570313"/><stop stop-opacity="1" stop-color="rgb(14.028931%, 23.002625%, 52.705383%)" offset="0.578125"/><stop stop-opacity="1" stop-color="rgb(14.039612%, 23.143005%, 52.986145%)" offset="0.585938"/><stop stop-opacity="1" stop-color="rgb(14.050293%, 23.283386%, 53.266907%)" offset="0.59375"/><stop stop-opacity="1" stop-color="rgb(14.060974%, 23.423767%, 53.547668%)" offset="0.601563"/><stop stop-opacity="1" stop-color="rgb(14.071655%, 23.564148%, 53.82843%)" offset="0.609375"/><stop stop-opacity="1" stop-color="rgb(14.083862%, 23.704529%, 54.109192%)" offset="0.617188"/><stop stop-opacity="1" stop-color="rgb(14.094543%, 23.84491%, 54.389954%)" offset="0.625"/><stop stop-opacity="1" stop-color="rgb(14.105225%, 23.983765%, 54.669189%)" offset="0.632812"/><stop stop-opacity="1" stop-color="rgb(14.115906%, 24.124146%, 54.949951%)" offset="0.640625"/><stop stop-opacity="1" stop-color="rgb(14.126587%, 24.264526%, 55.230713%)" offset="0.648438"/><stop stop-opacity="1" stop-color="rgb(14.138794%, 24.404907%, 55.511475%)" offset="0.65625"/><stop stop-opacity="1" stop-color="rgb(14.149475%, 24.545288%, 55.792236%)" offset="0.664062"/><stop stop-opacity="1" stop-color="rgb(14.160156%, 24.685669%, 56.072998%)" offset="0.671875"/><stop stop-opacity="1" stop-color="rgb(14.170837%, 24.82605%, 56.35376%)" offset="0.679688"/><stop stop-opacity="1" stop-color="rgb(14.183044%, 24.966431%, 56.632996%)" offset="0.6875"/><stop stop-opacity="1" stop-color="rgb(14.193726%, 25.106812%, 56.913757%)" offset="0.695312"/><stop stop-opacity="1" stop-color="rgb(14.204407%, 25.247192%, 57.194519%)" offset="0.703125"/><stop stop-opacity="1" stop-color="rgb(14.215088%, 25.387573%, 57.475281%)" offset="0.710938"/><stop stop-opacity="1" stop-color="rgb(14.225769%, 25.527954%, 57.756042%)" offset="0.71875"/><stop stop-opacity="1" stop-color="rgb(14.237976%, 25.668335%, 58.036804%)" offset="0.726562"/><stop stop-opacity="1" stop-color="rgb(14.248657%, 25.808716%, 58.317566%)" offset="0.734375"/><stop stop-opacity="1" stop-color="rgb(14.259338%, 25.949097%, 58.596802%)" offset="0.742187"/><stop stop-opacity="1" stop-color="rgb(14.27002%, 26.087952%, 58.877563%)" offset="0.75"/><stop stop-opacity="1" stop-color="rgb(14.280701%, 26.228333%, 59.158325%)" offset="0.757813"/><stop stop-opacity="1" stop-color="rgb(14.292908%, 26.368713%, 59.439087%)" offset="0.765625"/><stop stop-opacity="1" stop-color="rgb(14.303589%, 26.509094%, 59.719849%)" offset="0.773438"/><stop stop-opacity="1" stop-color="rgb(14.31427%, 26.649475%, 60.00061%)" offset="0.78125"/><stop stop-opacity="1" stop-color="rgb(14.324951%, 26.789856%, 60.281372%)" offset="0.789062"/><stop stop-opacity="1" stop-color="rgb(14.335632%, 26.930237%, 60.560608%)" offset="0.796875"/><stop stop-opacity="1" stop-color="rgb(14.347839%, 27.070618%, 60.84137%)" offset="0.804688"/><stop stop-opacity="1" stop-color="rgb(14.358521%, 27.210999%, 61.122131%)" offset="0.8125"/><stop stop-opacity="1" stop-color="rgb(14.369202%, 27.351379%, 61.402893%)" offset="0.820312"/><stop stop-opacity="1" stop-color="rgb(14.379883%, 27.49176%, 61.683655%)" offset="0.828125"/><stop stop-opacity="1" stop-color="rgb(14.39209%, 27.632141%, 61.964417%)" offset="0.835938"/><stop stop-opacity="1" stop-color="rgb(14.402771%, 27.772522%, 62.245178%)" offset="0.84375"/><stop stop-opacity="1" stop-color="rgb(14.413452%, 27.912903%, 62.524414%)" offset="0.851562"/><stop stop-opacity="1" stop-color="rgb(14.424133%, 28.051758%, 62.805176%)" offset="0.859375"/><stop stop-opacity="1" stop-color="rgb(14.434814%, 28.192139%, 63.085938%)" offset="0.867188"/><stop stop-opacity="1" stop-color="rgb(14.447021%, 28.33252%, 63.366699%)" offset="0.875"/><stop stop-opacity="1" stop-color="rgb(14.457703%, 28.4729%, 63.647461%)" offset="0.882812"/><stop stop-opacity="1" stop-color="rgb(14.468384%, 28.613281%, 63.928223%)" offset="0.890625"/><stop stop-opacity="1" stop-color="rgb(14.479065%, 28.753662%, 64.208984%)" offset="0.898437"/><stop stop-opacity="1" stop-color="rgb(14.489746%, 28.894043%, 64.489746%)" offset="0.90625"/><stop stop-opacity="1" stop-color="rgb(14.497375%, 28.981018%, 64.663696%)" offset="0.9375"/><stop stop-opacity="1" stop-color="rgb(14.498901%, 28.999329%, 64.698792%)" offset="1"/></linearGradient><clipPath id="44b2da6ad0"><path d="M 0.75 151.691406 L 810 151.691406 L 810 657 L 0.75 657 Z M 0.75 151.691406 " clip-rule="nonzero"/></clipPath><clipPath id="a6709588c0"><path d="M 39 151.691406 L 772.5 151.691406 C 782.644531 151.691406 792.375 155.722656 799.546875 162.894531 C 806.71875 170.066406 810.75 179.796875 810.75 189.941406 L 810.75 620.058594 C 810.75 630.203125 806.71875 639.933594 799.546875 647.105469 C 792.375 654.277344 782.644531 658.308594 772.5 658.308594 L 39 658.308594 C 28.855469 658.308594 19.125 654.277344 11.953125 647.105469 C 4.78125 639.933594 0.75 630.203125 0.75 620.058594 L 0.75 189.941406 C 0.75 179.796875 4.78125 170.066406 11.953125 162.894531 C 19.125 155.722656 28.855469 151.691406 39 151.691406 " clip-rule="nonzero"/></clipPath><clipPath id="db0f9a9626"><path d="M 227.445312 186.339844 L 810 186.339844 L 810 617.589844 L 227.445312 617.589844 Z M 227.445312 186.339844 " clip-rule="nonzero"/></clipPath></defs><g clip-path="url(#644caebe36)"><path fill="#ffffff" d="M 40.5 151.871094 L 769.5 151.871094 C 770.828125 151.871094 772.148438 151.9375 773.46875 152.066406 C 774.789062 152.195312 776.101562 152.390625 777.402344 152.648438 C 778.703125 152.910156 779.988281 153.230469 781.257812 153.613281 C 782.527344 154 783.773438 154.445312 785 154.953125 C 786.222656 155.460938 787.421875 156.027344 788.589844 156.652344 C 789.761719 157.277344 790.898438 157.957031 792 158.691406 C 793.101562 159.429688 794.167969 160.21875 795.191406 161.058594 C 796.21875 161.898438 797.199219 162.789062 798.136719 163.726562 C 799.074219 164.664062 799.964844 165.644531 800.808594 166.667969 C 801.648438 167.695312 802.4375 168.757812 803.175781 169.859375 C 803.910156 170.960938 804.59375 172.097656 805.21875 173.265625 C 805.84375 174.433594 806.410156 175.632812 806.917969 176.855469 C 807.425781 178.082031 807.871094 179.328125 808.257812 180.59375 C 808.640625 181.863281 808.964844 183.148438 809.222656 184.449219 C 809.480469 185.746094 809.675781 187.058594 809.804688 188.375 C 809.933594 189.695312 810 191.019531 810 192.34375 L 810 617.289062 C 810 618.613281 809.933594 619.9375 809.804688 621.253906 C 809.675781 622.574219 809.480469 623.882812 809.222656 625.183594 C 808.964844 626.484375 808.640625 627.769531 808.257812 629.035156 C 807.871094 630.304688 807.425781 631.550781 806.917969 632.777344 C 806.410156 634 805.84375 635.199219 805.21875 636.367188 C 804.59375 637.535156 803.910156 638.671875 803.175781 639.773438 C 802.4375 640.875 801.648438 641.9375 800.808594 642.960938 C 799.964844 643.988281 799.074219 644.96875 798.136719 645.90625 C 797.199219 646.84375 796.21875 647.730469 795.191406 648.574219 C 794.167969 649.414062 793.101562 650.203125 792 650.9375 C 790.898438 651.675781 789.761719 652.355469 788.589844 652.980469 C 787.421875 653.605469 786.222656 654.171875 785 654.679688 C 783.773438 655.1875 782.527344 655.632812 781.257812 656.015625 C 779.988281 656.402344 778.703125 656.722656 777.402344 656.980469 C 776.101562 657.242188 774.789062 657.433594 773.46875 657.566406 C 772.148438 657.695312 770.828125 657.757812 769.5 657.757812 L 40.5 657.757812 C 39.171875 657.757812 37.851562 657.695312 36.53125 657.566406 C 35.210938 657.433594 33.898438 657.242188 32.597656 656.980469 C 31.296875 656.722656 30.011719 656.402344 28.742188 656.015625 C 27.472656 655.632812 26.226562 655.1875 25 654.679688 C 23.777344 654.171875 22.578125 653.605469 21.410156 652.980469 C 20.238281 652.355469 19.101562 651.675781 18 650.9375 C 16.898438 650.203125 15.832031 649.414062 14.808594 648.574219 C 13.78125 647.730469 12.800781 646.84375 11.863281 645.90625 C 10.925781 644.96875 10.035156 643.988281 9.191406 642.960938 C 8.351562 641.9375 7.5625 640.875 6.824219 639.773438 C 6.089844 638.671875 5.40625 637.535156 4.78125 636.367188 C 4.15625 635.199219 3.589844 634 3.082031 632.777344 C 2.574219 631.550781 2.128906 630.304688 1.742188 629.035156 C 1.359375 627.769531 1.035156 626.484375 0.777344 625.183594 C 0.519531 623.882812 0.324219 622.574219 0.195312 621.253906 C 0.0664062 619.9375 0 618.613281 0 617.289062 L 0 192.34375 C 0 191.019531 0.0664062 189.695312 0.195312 188.375 C 0.324219 187.058594 0.519531 185.746094 0.777344 184.449219 C 1.035156 183.148438 1.359375 181.863281 1.742188 180.59375 C 2.128906 179.328125 2.574219 178.082031 3.082031 176.855469 C 3.589844 175.632812 4.15625 174.433594 4.78125 173.265625 C 5.40625 172.097656 6.089844 170.960938 6.824219 169.859375 C 7.5625 168.757812 8.351562 167.695312 9.191406 166.667969 C 10.035156 165.644531 10.925781 164.664062 11.863281 163.726562 C 12.800781 162.789062 13.78125 161.898438 14.808594 161.058594 C 15.832031 160.21875 16.898438 159.429688 18 158.691406 C 19.101562 157.957031 20.238281 157.277344 21.410156 156.652344 C 22.578125 156.027344 23.777344 155.460938 25 154.953125 C 26.226562 154.445312 27.472656 154 28.742188 153.613281 C 30.011719 153.230469 31.296875 152.910156 32.597656 152.648438 C 33.898438 152.390625 35.210938 152.195312 36.53125 152.066406 C 37.851562 151.9375 39.171875 151.871094 40.5 151.871094 Z M 40.5 151.871094 " fill-opacity="1" fill-rule="nonzero"/></g><g clip-path="url(#55dca1db85)"><g clip-path="url(#af5df7d347)"><g clip-path="url(#735e8c7004)"><path fill="url(#87187e5784)" d="M 212.675781 630.675781 L 108.3125 347.5 L 567.109375 178.652344 L 671.476562 461.828125 Z M 212.675781 630.675781 " fill-rule="nonzero"/></g></g></g><g clip-path="url(#44b2da6ad0)"><g clip-path="url(#a6709588c0)"><path fill="#016fd0" d="M 0.75 151.691406 L 809.484375 151.691406 L 809.484375 656.675781 L 0.75 656.675781 Z M 0.75 151.691406 " fill-opacity="1" fill-rule="nonzero"/></g></g><g clip-path="url(#db0f9a9626)"><path fill="#016fd0" d="M 222.539062 109.183594 L 809.746094 109.183594 L 809.746094 696.398438 L 222.539062 696.398438 L 222.539062 109.183594 " fill-opacity="1" fill-rule="evenodd"/></g><path fill="#ffffff" d="M 435.25 603.488281 L 435.25 393.070312 L 809.746094 393.414062 L 809.746094 451.535156 L 766.457031 497.78125 L 809.746094 544.472656 L 809.746094 603.820312 L 740.640625 603.820312 L 703.914062 563.296875 L 667.445312 603.984375 L 435.25 603.488281 " fill-opacity="1" fill-rule="evenodd"/><path fill="#016fd0" d="M 460.265625 580.410156 L 460.265625 416.222656 L 599.484375 416.222656 L 599.484375 454.046875 L 505.351562 454.046875 L 505.351562 479.722656 L 597.242188 479.722656 L 597.242188 516.921875 L 505.351562 516.921875 L 505.351562 542.140625 L 599.484375 542.140625 L 599.484375 580.410156 L 460.265625 580.410156 " fill-opacity="1" fill-rule="evenodd"/><path fill="#016fd0" d="M 598.796875 580.410156 L 675.816406 498.226562 L 598.796875 416.238281 L 658.410156 416.238281 L 705.480469 468.269531 L 752.683594 416.238281 L 809.746094 416.238281 L 809.746094 417.523438 L 734.359375 498.226562 L 809.746094 578.089844 L 809.746094 580.410156 L 752.109375 580.410156 L 704.207031 527.855469 L 656.789062 580.410156 L 598.796875 580.410156 " fill-opacity="1" fill-rule="evenodd"/><path fill="#ffffff" d="M 452.722656 206.316406 L 542.992188 206.316406 L 574.699219 278.316406 L 574.699219 206.316406 L 686.152344 206.316406 L 705.367188 260.257812 L 724.648438 206.316406 L 809.746094 206.316406 L 809.746094 416.722656 L 360.015625 416.722656 L 452.722656 206.316406 " fill-opacity="1" fill-rule="evenodd"/><path fill="#016fd0" d="M 469.824219 229.175781 L 396.96875 393.222656 L 446.9375 393.222656 L 460.671875 360.371094 L 535.144531 360.371094 L 548.882812 393.222656 L 600.082031 393.222656 L 527.535156 229.175781 Z M 476.078125 323.554688 L 497.921875 271.332031 L 519.75 323.554688 Z M 476.078125 323.554688 " fill-opacity="1" fill-rule="evenodd"/><path fill="#016fd0" d="M 599.40625 393.195312 L 599.40625 229.152344 L 669.636719 229.394531 L 705.773438 330.246094 L 742.15625 229.152344 L 809.746094 229.152344 L 809.746094 393.195312 L 766.253906 393.578125 L 766.253906 280.890625 L 725.195312 393.195312 L 685.488281 393.195312 L 643.574219 280.507812 L 643.574219 393.195312 L 599.40625 393.195312 " fill-opacity="1" fill-rule="evenodd"/></svg>