<?xml version="1.0" encoding="utf-8"?>
<!-- Generator: Adobe Illustrator 23.0.3, SVG Export Plug-In . SVG Version: 6.00 Build 0)  -->
<svg version="1.1" id="Layer_1" xmlns="http://www.w3.org/2000/svg" xmlns:xlink="http://www.w3.org/1999/xlink" x="0px" y="0px"
	 viewBox="0 0 1920 603.7" style="enable-background:new 0 0 1920 603.7;" xml:space="preserve">
<style type="text/css">
	.st0{fill:#FCE1E2;}
	.st1{fill:#FCDBCD;}
	.st2{fill:#FFF2E3;}
	.st3{fill:#E8D3C1;}
	.st4{fill:#F6CCC8;}
	.st5{fill:#E6BDBA;}
	.st6{fill:#F2EFE3;}
	.st7{opacity:0.6;fill:#EF8299;enable-background:new    ;}
	.st8{opacity:0.8;fill:#F6CCC8;enable-background:new    ;}
	.st9{opacity:0.75;fill:#FDF5EA;enable-background:new    ;}
	.st10{opacity:0.7;fill:#F4F0EF;enable-background:new    ;}
	.st11{fill:#F7CCC8;}
	.st12{fill:#E4A7A0;}
	.st13{fill:#040504;}
	.st14{fill:#331A1E;}
	.st15{fill:#D38D8C;}
	.st16{fill:#B0B0AF;}
	.st17{fill:#0089B4;}
	.st18{fill:#006289;}
	.st19{fill:#D5CDBC;}
	.st20{opacity:0.5;fill:#8C8C8C;enable-background:new    ;}
	.st21{fill:#DE7A5C;}
	.st22{fill:#9C9B99;}
	.st23{fill:#F4A31B;}
	.st24{fill:#D88C1D;}
	.st25{fill:#282828;}
	.st26{fill:#331D1F;}
	.st27{fill:#BBE2ED;}
</style>
<title>v1homepage</title>
<rect class="st0" width="1920" height="600"/>
<polygon class="st1" points="933.9,167.9 933.9,133.4 919.2,133.4 919.2,92.4 870.5,92.4 870.5,133.4 855.8,133.4 855.8,167.9 
	844,167.9 844,520.4 945.7,520.4 945.7,167.9 "/>
<rect x="860.3" y="184.5" class="st2" width="10.5" height="49.6"/>
<rect x="880.1" y="184.5" class="st2" width="10.5" height="49.6"/>
<rect x="900.5" y="184.5" class="st2" width="10.5" height="49.6"/>
<rect x="919.8" y="184.5" class="st2" width="10.5" height="49.6"/>
<polygon class="st3" points="855.8,133.4 906.6,167.9 855.8,167.9 "/>
<polygon class="st3" points="870.3,101.4 906.6,133.4 870.3,133.4 "/>
<rect x="891.3" y="58.7" class="st1" width="7.1" height="33.7"/>
<rect x="588.1" y="153.3" class="st4" width="68.8" height="369"/>
<polygon class="st1" points="626.8,153.3 626.8,522.3 656.4,522.3 672.4,522.3 722.7,522.3 722.7,153.3 "/>
<rect x="1029.7" y="225.2" class="st1" width="126.5" height="297.1"/>
<rect x="945.8" y="225.2" class="st4" width="84.5" height="297.1"/>
<polygon class="st3" points="626.8,331.9 626.8,522.3 722.7,522.3 722.7,407.9 "/>
<rect x="640.6" y="171.6" class="st2" width="10.2" height="118.2"/>
<rect x="659.9" y="171.6" class="st2" width="10.2" height="118.2"/>
<rect x="679.8" y="171.6" class="st2" width="10.2" height="118.2"/>
<rect x="698.7" y="171.6" class="st2" width="10.2" height="118.2"/>
<rect x="722.7" y="331.9" class="st4" width="184.9" height="190.5"/>
<polygon class="st5" points="797,522.3 722.7,522.7 722.7,331.9 797,379 "/>
<polygon class="st5" points="1031.6,522.3 945.8,522.3 945.8,225.2 1030.3,275.8 "/>
<polygon class="st5" points="626.8,522.5 606.3,522.5 606.3,353 626.8,367.7 "/>
<polygon class="st1" points="502.6,353 606.3,353 606.3,522.5 503.2,522.5 "/>
<polygon class="st4" points="519.6,359 558.4,358.8 558.4,522.7 519.9,522.7 "/>
<polygon class="st1" points="626.8,368 626.8,522.3 767.4,522.7 767.4,478.5 "/>
<rect x="526.3" y="368.1" class="st2" width="10.2" height="59.1"/>
<rect x="541.6" y="368.1" class="st2" width="10.2" height="59.1"/>
<rect x="859.9" y="368.1" class="st2" width="10.2" height="59.1"/>
<rect x="875.2" y="368.1" class="st2" width="10.2" height="59.1"/>
<polygon class="st3" points="907.6,331.9 945.7,358.8 945.7,522.3 907.6,522.3 "/>
<rect x="859.9" y="448.2" class="st2" width="10.2" height="59.1"/>
<rect x="875.2" y="448.2" class="st2" width="10.2" height="59.1"/>
<rect x="1050.2" y="368.1" class="st2" width="10.2" height="59.1"/>
<rect x="1065.5" y="368.1" class="st2" width="10.2" height="59.1"/>
<rect x="1050.2" y="448.2" class="st2" width="10.2" height="59.1"/>
<rect x="1065.5" y="448.2" class="st2" width="10.2" height="59.1"/>
<polygon class="st3" points="558.4,358.8 558.4,522.5 606.3,522.5 606.3,409.6 "/>
<rect x="1175.5" y="392.1" class="st6" width="10" height="57.9"/>
<rect x="1100.5" y="392.1" class="st6" width="10" height="57.9"/>
<path class="st7" d="M548.7,469.7c5.1-16-3.6-33.1-19.6-38.2c-3-1-6.2-1.5-9.4-1.5c0.4-16.8-12.9-30.7-29.7-31.1
	c-13.8-0.3-26,8.6-29.9,21.8c-16.1-4.7-33,4.5-37.7,20.6c-0.9,3.2-1.3,6.5-1.2,9.9c-6.3,9.1-9.6,19.9-9.7,31c0,33.7,31,61,69.3,61
	s69.3-27.3,69.3-61C550.1,478,549.7,473.8,548.7,469.7z"/>
<path class="st7" d="M537.1,484.1c4.6-14.2-3.2-29.5-17.4-34.1c-2.7-0.9-5.5-1.3-8.3-1.3c0.3-14.9-11.6-27.3-26.5-27.6
	c-12.2-0.2-23,7.7-26.5,19.3c-14.4-4.2-29.4,4-33.6,18.4c-0.8,2.9-1.2,5.8-1.1,8.8c-5.6,8.1-8.6,17.8-8.6,27.6
	c0,30,27.6,54.3,61.7,54.3s61.7-24.3,61.7-54.3C538.4,491.5,538,487.8,537.1,484.1z"/>
<path class="st7" d="M830.5,499c1.3-10.9-6.4-20.8-17.3-22.2c-2.1-0.3-4.2-0.2-6.2,0.2c-1.8-10.8-12.1-18.2-22.9-16.3
	c-8.9,1.5-15.7,8.8-16.5,17.8c-10.9-1-20.7,7-21.7,17.9c-0.2,2.2,0,4.4,0.5,6.6c-2.9,6.7-3.7,14-2.3,21.2
	c4.2,21.7,27.5,35.3,52.1,30.6s41.2-26.2,37-47.8C832.5,504.2,831.6,501.5,830.5,499z"/>
<path class="st7" d="M824.8,509.8c1.2-9.7-5.7-18.6-15.5-19.7c-1.8-0.2-3.7-0.2-5.5,0.2c-1.6-9.7-10.8-16.2-20.4-14.5
	c-7.9,1.3-13.9,7.8-14.7,15.8c-3.1-0.3-6.3,0.2-9.1,1.6c-7.7,3.5-11.8,12-9.8,20.2c-2.6,5.9-3.3,12.5-2.1,18.8
	c3.7,19.3,24.5,31.5,46.4,27.3s36.7-23.3,32.9-42.6C826.5,514.4,825.8,512,824.8,509.8z"/>
<path class="st7" d="M1138.2,452.5c-4-13.8-18.5-21.7-32.3-17.7c-2.6,0.8-5.1,1.9-7.3,3.5c-7.8-12-23.9-15.5-36-7.7
	c-9.8,6.4-14.2,18.5-10.6,29.7c-13.7,4.4-21.2,19.1-16.8,32.7c0.9,2.7,2.2,5.3,3.9,7.5c0,9.5,2.8,18.7,8.1,26.6
	c16.2,23.8,51.2,28.2,78.3,9.9s35.9-52.6,19.7-76.4C1143.2,457.6,1140.8,454.9,1138.2,452.5z"/>
<path class="st7" d="M1136.9,468.3c-3.6-12.3-16.4-19.3-28.7-15.7c-2.3,0.7-4.5,1.7-6.5,3.1c-6.9-10.8-21.3-13.8-32-6.9
	c-8.8,5.7-12.7,16.6-9.5,26.5c-12.2,3.9-18.9,17-14.9,29.1c0.8,2.4,2,4.7,3.5,6.7c0,8.4,2.5,16.7,7.2,23.7
	c14.4,21.2,45.6,25.2,69.8,8.8s32-46.8,17.6-68.1C1141.4,472.9,1139.3,470.4,1136.9,468.3z"/>
<path class="st8" d="M1377.4,288.2c-3.5-6.1-7.2-12.5-10.5-19.4V153.2l-108.8-2.5c-7-3.2-14.2-6.1-21.5-8.6
	c-53.1-18.6-111.2-19.6-153.3-4.9c-114,39.8-134.7-41.5-104.2-74.3c53.1-57.2,164.8-12.8,286-27.7c213.1-26.1,309,108.3,319,183.6
	C1600.5,342.2,1437.4,392,1377.4,288.2z"/>
<path class="st9" d="M1406.1,398.6c71.8,24,76.9,127.8-7.7,164.9c-54.2,23.7-165.7,38.5-333.3,15.1c-87.5-12.2-161.5-36-361-32.8
	c-103.5,1.6-176,29-288.1,41.4c-84.6,9.4-82.1-44.6-49.8-64.6c22.8-14.1,101.1-54.9,284.5-25.4c164.7,26.5,293,18,350.5,4.3
	c63.2-15.1,164-50.9,244.5-88.4C1312.8,381.7,1366,385.3,1406.1,398.6z"/>
<path class="st10" d="M1548.3,278.1c0,168.6-117.8,255-303.9,295.7c-64.7,14.2-172.1,27.3-217.5,29.4
	c-167.6,7.8-173.5-76-115.8-104.2c186.4-90.9,136.3-189.8,164-332.1C1093,74.5,1175.9,44,1244.5,52.6c14,1.7,27.7,5.2,40.8,10.4
	c20.4,8.1,38.4,21.3,52.3,38.2c4.2,5.2,8.7,10.2,13.5,14.8c11.3,11.1,24.4,20.1,38.8,26.6c24.8,11.1,49.3,11.9,70.6,14.7
	C1510.6,163.6,1548.3,213.3,1548.3,278.1z"/>
<path class="st7" d="M1104.4,145.1c-1-15.6-14.5-27.5-30.1-26.4c-14.3,0.9-25.7,12.4-26.5,26.8c-8.1,1.8-13.2,9.9-11.4,18
	c1.6,6.9,7.7,11.8,14.7,11.8h52.7c8.3,0,15.1-6.7,15.2-15C1119,152.1,1112.6,145.4,1104.4,145.1L1104.4,145.1z"/>
<circle class="st2" cx="767.4" cy="117.4" r="36.3"/>
<polyline class="st11" points="1258.4,156.3 1258.4,467.5 1257.4,467.3 1253,466.5 1253,156.3 "/>
<circle class="st7" cx="1359.1" cy="313" r="4.9"/>
<circle class="st11" cx="1356.7" cy="310" r="4.9"/>
<path class="st11" d="M1235.9,468.1l10.4,1.6V154.3h140.3c1.1,0,2-0.9,2-2l0,0c0-1.1-0.9-2-2-2l-65.7-0.2c-1.3,0-2.4-1.1-2.5-2.4
	l0,0c0-1.4,1-2.5,2.4-2.5c0,0,0.1,0,0.1,0l33.3,0.2c1,0,1.9-0.8,1.9-1.9c0,0,0,0,0,0l0,0c0-1-0.9-1.9-1.9-1.9h-117.6L1235.9,468.1z"
	/>
<path class="st7" d="M1246.2,154.3v315.5l121.7,19.3V154.3H1246.2z M1246.2,469.8v-1.3l6.8-1.6V156.3h5.4
	c33.9,15.5,79,45.9,101.3,102.7c2.1,5.4,6,11.5,8.3,16.3v176.5l-110,15.7l110-4.2V489L1246.2,469.8z"/>
<path class="st11" d="M1382.5,483.9c-2-0.3-3.8,1.1-4.1,3c0,0.2,0,0.4,0,0.5l0,0c0,1.8,1.3,3.3,3.1,3.6l7.6,1.2
	c1.6,2,0.1,3.9-1.5,3.6l-68.8-11c-1.3-0.3-2.7,0.6-2.9,1.9c-0.3,1.3,0.6,2.7,1.9,2.9c0.1,0,0.1,0,0.2,0l37.2,6.1
	c1.1,0.3,1.6,1.4,1.3,2.5c-0.3,0.8-1.1,1.4-1.9,1.4l-118.5-18.6v-13l132,20.8V154.3h10.4v315.6c0,1.5,1.1,2.8,2.6,3l36.6,5.2
	c2.6,0.4,4.6,2.6,4.6,5.3l0,0c0,3-2.4,5.4-5.3,5.4c-0.3,0-0.5,0-0.8-0.1L1382.5,483.9z"/>
<path class="st11" d="M1439.9,473.2l-39.2-5.7c-2.7-0.4-4.7-2.8-4.7-5.5l0,0c0.1-3,2.6-5.4,5.6-5.3c0.2,0,0.4,0,0.6,0.1l39.2,5.7
	c2.7,0.4,4.7,2.8,4.7,5.5l0,0c-0.1,3-2.6,5.4-5.6,5.3C1440.3,473.3,1440.1,473.3,1439.9,473.2z"/>
<path class="st11" d="M1514.8,295l-39.5-1.3c-2.8-0.1-5-2.2-5.3-5l0,0c-0.3-3,2-5.7,5-5.9c0.2,0,0.4,0,0.7,0l39.5,1.3
	c2.8,0.1,5,2.2,5.3,5l0,0c0.3,3-1.9,5.6-4.9,5.9C1515.2,295,1515,295,1514.8,295z"/>
<path class="st11" d="M1416.6,338.6l-44.3-3.1l-0.6-11l45.6,3.2c2.8,0.2,4.9,2.4,5.1,5.2l0,0c0.2,3-2.2,5.6-5.2,5.7
	C1417.1,338.7,1416.8,338.7,1416.6,338.6z"/>
<path class="st11" d="M1430.7,349.8l-41.3-2.9c-1.3-0.1-2.2-1.1-2.3-2.4l0,0c-0.1-1.4,1-2.5,2.3-2.6c0.1,0,0.2,0,0.3,0l41.3,2.9
	c1.3,0.1,2.2,1.1,2.3,2.4l0,0c0.1,1.4-1,2.5-2.4,2.6C1430.9,349.8,1430.8,349.8,1430.7,349.8z"/>
<path class="st11" d="M1454,235.7l-41.3-1c-1.3,0-2.3-1-2.4-2.2l0,0c-0.1-1.4,0.9-2.6,2.2-2.7c0.1,0,0.2,0,0.3,0l41.3,1
	c1.3,0,2.3,1,2.4,2.2l0,0c0.1,1.4-0.9,2.6-2.2,2.7C1454.2,235.7,1454.1,235.7,1454,235.7z"/>
<path class="st12" d="M1310.9,226.6c-5,0-9.5,1.9-11.9,5.8c0,0,0,0.1,0,0.1c-2.3,2.8-3.3,6.4-2.8,10c0.1,0.5,0,1-0.3,1.4l-2.8,2.8
	c-0.2,0.3-0.1,0.8,0.2,1c0,0,0.1,0.1,0.1,0.1l1.6,0.8c0.2,0.1,0.4,0.3,0.5,0.4c0.1,0.2,0.2,0.4-0.1,1.6l-0.1,0.3l-0.1,0.3
	c0,0.5,0.3,0.6,0.9,0.7c0.3,0,0.7,0,1,0c0.9-0.1,1.8-0.3,2.6-0.8h0.1c0.2-0.1,0.4-0.2,0.6-0.3l0.2-0.1l0.1-0.1l0,0
	c0,0,0.1,0,0.1-0.1l0,0v0.1c-0.5,0.7-1.1,1.3-1.8,1.8c-0.3,0.2-0.5,0.3-0.8,0.5c-0.7,0.4-1.4,0.6-2.2,0.8c-0.2,0.1-0.3,0.3-0.2,0.5
	c0,0.2,0.1,0.5,0.3,0.6c0.4,0.3,0.6,0.8,0.5,1.3c-0.1,0.3-0.1,0.5-0.2,0.8c0,1.1,0.9,2.1,2,2.1c0.1,0,0.2,0,0.4,0
	c0.3,0,0.6-0.1,0.8-0.1l4.3-1.7c1.2-0.4,2.4,0.2,2.8,1.4l0.5,4.7c0,0,0,0,0,0.1l0.2,2.4l0,0c0,2.7,2.2,4.8,4.9,4.8
	c0.1,0,0.2,0,0.3,0c2.5-0.2,4.5-2.2,4.6-4.8l0,0v-2.3v-11.6c4.5-2.4,7.4-7.1,7.4-12.3C1324.6,232.1,1318.5,226.6,1310.9,226.6z"/>
<path class="st13" d="M1296.5,241.8c0.7-0.5,1.7-0.5,2.4,0c0.4,0.2,0.7,0.5,1,0.7c0.3,0.2,0.7,0.3,1.1,0.2c-0.2,0.1-0.4,0.2-0.6,0.2
	c-0.2,0-0.4-0.1-0.6-0.2c-0.4-0.2-0.7-0.5-1-0.6c-0.3-0.2-0.7-0.3-1.1-0.3C1297.3,241.6,1296.9,241.7,1296.5,241.8z"/>
<ellipse class="st13" cx="1297.7" cy="242.5" rx="0.7" ry="1.1"/>
<path class="st13" d="M1296.4,240.2c0.5-0.2,0.8-0.4,1.4-0.6c0.3-0.1,0.6-0.1,0.9,0l0.7,0.2l2.8,0.8l-2.9-0.4l-0.7-0.1
	c-0.2,0-0.4,0-0.6,0.1l-1.2,0.8l0,0c-0.2,0.1-0.5,0.1-0.7-0.1C1296.1,240.7,1296.1,240.4,1296.4,240.2L1296.4,240.2z"/>
<rect x="1307.4" y="265.8" class="st12" width="9.8" height="20.4"/>
<path class="st14" d="M1311.3,245.9l-1.6,0.7c-0.7,0.3-1,1.1-0.8,1.9l0.9,2.8c-0.2-1-0.3-2.1-0.3-3.1c0.1-0.3,0.3-0.6,0.6-0.8
	c0.4-0.2,0.9-0.4,1.3-0.6L1311.3,245.9z"/>
<path class="st14" d="M1328.6,238.7c0-8.3-7-14.2-15.9-14.2c-5.8,0-10.9,2-13.7,6.3c0,0,7.4,14.9,12.7,16l2.1-4.7h0.6
	c1.7,0,3.1,1.4,3.1,3.1c0,1.2-0.7,2.3-1.7,2.8l0,0c0,0-5.2,2.8-2.5,7l4,6v-2.4c0,0-0.2-4.8,3.1-6.8l0.1-0.1c0.2-0.1,0.4-0.2,0.6-0.3
	l0,0C1325.7,248.7,1328.5,243.9,1328.6,238.7z"/>
<path class="st14" d="M1305.5,228.1c-1.3-1.2-3-1.8-4.8-1.9c-4.3,0-7.8,4-7.8,8.9c0,1.5,0.4,2.9,1,4.3l0.6-0.1c-0.2-1.3-0.2-2.7,0-4
	c0,0,0.4,2.5,0.8,3.9c0.7-0.1,1.3-0.1,2-0.2c-0.3-1-0.3-2.1,0-3.1c0.4,1.1,0.8,2.1,1.3,3.2c1.9,0.1,3.7,0.5,5.4,1.3
	c-1-1.6-1.5-3.3-1.5-5.2C1302.5,232.5,1303.6,230,1305.5,228.1z"/>
<circle class="st14" cx="1330.9" cy="228.1" r="7.4"/>
<path class="st14" d="M1327.7,231.7c0,0-2.3,2.9,0.8,6s2.3,6.3,0,8.9s-1.7,7.2,2.9,8.4c3.4,0.9,4.1,3.3,3.5,6s0.6,3.1,3.3,0
	s3-7.6,1.6-9.7s1.9-5.1,1.9-9.2c0-6.6-6.2-2.3-3.7-12.6c0.7-2.7-3.2-2.4-3.2-2.4L1327.7,231.7z"/>
<path class="st12" d="M1328.7,477c0,0.5-0.2,0.9-0.6,0.9c-0.2,0-0.3,0.1-0.5,0c-0.3,0-0.7-0.1-0.9-0.4c-0.1,0.2-0.3,0.4-0.5,0.5
	c-0.2,0-0.4,0.1-0.5,0.1c-0.4,0-0.8-0.1-1.1-0.5c-0.1,0.2-0.3,0.3-0.5,0.4c-0.1,0-0.3,0.1-0.4,0c-0.5,0-1-0.2-1.3-0.5
	c-0.2,0.3-0.5,0.5-0.8,0.5h-0.3c-0.5,0-0.9-0.2-1.2-0.6c-0.1-0.1-0.1-0.2-0.1-0.3c-0.2,0.4-0.5,0.7-0.9,0.8
	c-0.3,0.1-0.6,0.1-0.9,0.1h-0.2c-0.8,0-1.6-0.3-2.1-1c-0.3-0.5-0.5-1.1-0.7-1.6c-0.1-0.3-0.2-0.5-0.3-0.8c-0.1-0.8,0-1.7,0.4-2.5
	l1-4.1c0.1-0.2,1.4-7.9,2.2-12l6.7,0.1h0.2c-0.1,0.6-0.1,1.2,0,1.7l1,10c0,0.3,0.1,0.5,0.1,0.8l0.3,2.7l1.1,3.2L1328.7,477z"/>
<path class="st15" d="M1322,476.5c0,0.1,0,0.2-0.1,0.2c0,0-0.1,0-0.1,0h-1.3c-0.1,0-0.2-0.1-0.2-0.2c0,0,0,0,0,0v-0.3
	c0-0.2,0-0.4,0.3-0.4h1c0.2,0,0.2,0.1,0.3,0.3L1322,476.5z"/>
<path class="st15" d="M1324.1,476.5c0,0.1,0,0.2-0.1,0.2c0,0-0.1,0-0.1,0h-1.2c-0.1,0-0.2-0.1-0.2-0.2c0,0,0,0,0,0v-0.3
	c0-0.2,0-0.4,0.3-0.4h0.9c0.2,0,0.2,0.1,0.3,0.3L1324.1,476.5z"/>
<path class="st15" d="M1326.2,476.5c0,0.1,0,0.2-0.1,0.2c0,0-0.1,0-0.1,0h-1.2c-0.1,0-0.2-0.1-0.2-0.2c0,0,0,0,0,0v-0.3
	c0-0.2,0-0.4,0.3-0.4h0.9c0.2,0,0.2,0.1,0.3,0.3L1326.2,476.5z"/>
<path class="st15" d="M1328.1,476.5c0,0.1,0,0.2-0.1,0.2c0,0,0,0-0.1,0h-1.1c-0.1,0-0.2-0.1-0.2-0.2c0,0,0,0,0,0v-0.2
	c0-0.2,0-0.3,0.2-0.3h0.8c0.2,0,0.2,0,0.2,0.2L1328.1,476.5z"/>
<path class="st15" d="M1316.4,475.2l0.6,1.6c0.1,0.1,0.2,0.2,0.3,0.1c0.6-0.2,1.2-0.2,1.8-0.1c0.2,0,0.4-0.1,0.3-0.3l-0.6-1.5
	c0-0.1-0.1-0.1-0.2-0.1c-0.3,0-0.6,0-0.9,0c-0.3,0-0.7,0.1-1,0.1C1316.4,475,1316.3,475.1,1316.4,475.2z"/>
<path class="st12" d="M1306.6,467.3c-0.1,2.2-1.1,2.9-2.4,3.3c-1.1,0.3-2.2,0.3-3.3,0c-1.2-0.3-2.1-1-3.7-1
	c-2.7-0.1-2.8,0.7-5.7,1.2c-3.7,0.6-11.6-0.1-11.6-0.1c-1.1-0.2-1.8-1.2-1.6-2.3c0-0.2,0.3-0.6,0.4-0.6h0.8c0-0.1,0-0.3,0-0.4
	c0-0.1,0.1-0.3,0.2-0.4h0.3c0,0,0-0.1,0-0.1c0-0.1,0.1-0.3,0.2-0.4h0.6v-0.2c0-0.1,0.1-0.2,0.2-0.2h0.3c0-0.1,0.1-0.3,0.2-0.4h0.1
	h0.8h0.4c1.1,0,2.2-0.1,3.3-0.4c6.5-0.8,11.8-6.1,11.8-12.5c0-0.1,0-0.8,0-0.9h7.1c-0.2,7.5,0.6,10.2,1.2,12
	C1306.4,465,1306.6,466.1,1306.6,467.3z"/>
<path class="st15" d="M1280.4,468.8v-0.7c0-0.2-0.1-0.3-0.3-0.3c0,0,0,0,0,0h-1.6c-0.2,0-0.3,0.1-0.3,0.3c0,0,0,0,0,0v0.2
	c0,0.4,0.3,0.8,0.8,0.8c0,0,0,0,0,0h1.1C1280.3,469.1,1280.4,469,1280.4,468.8C1280.4,468.8,1280.4,468.8,1280.4,468.8z"/>
<path class="st15" d="M1280.5,467.3v-0.2c0-0.1,0-0.1-0.1-0.1h-0.9c-0.1,0-0.2,0.1-0.2,0.2v0.1c0,0.2,0.1,0.4,0.4,0.4c0,0,0,0,0,0
	h0.4C1280.3,467.7,1280.5,467.5,1280.5,467.3C1280.5,467.3,1280.5,467.3,1280.5,467.3z"/>
<path class="st15" d="M1281,467v-0.4c0,0,0-0.1-0.1-0.1c0,0,0,0,0,0h-0.9c-0.1,0-0.2,0.1-0.2,0.2v0.3H1281z"/>
<path class="st15" d="M1281.6,466.5v-0.3c0,0,0-0.1-0.1-0.1c0,0,0,0,0,0h-0.9c-0.1,0-0.2,0.1-0.2,0.2v0.2L1281.6,466.5z"/>
<path class="st15" d="M1282.1,466.1v-0.3c0,0,0-0.1-0.1-0.1c0,0,0,0,0,0h-0.8c-0.1,0-0.2,0.1-0.2,0.2c0,0,0,0,0,0v0.2L1282.1,466.1z
	"/>
<path class="st12" d="M1322.4,462.2h-1.3c-1.6,0-2.8-1.4-2.8-3c0,0,0,0,0,0l0.3-9c0-1.6,1.4-2.8,3-2.8c0,0,0,0,0,0h1.3
	c1.6,0,2.8,1.4,2.8,3c0,0,0,0,0,0l-0.3,9C1325.4,461,1324,462.2,1322.4,462.2C1322.4,462.2,1322.4,462.2,1322.4,462.2z"/>
<path class="st16" d="M1328.2,398.6c-0.3,3.7-0.2,7.4,0.1,11.1l0.2,2.3c0.4,4.2,0.4,8.3-0.1,12.5l-2.7,27.5h-7l-2.5-26.5
	c-0.7-4.1-0.9-8.3-0.6-12.4l0.2-2.3c0.1-4.1-0.1-8.2-0.7-12.3c0,0-1.9-20.7-4-36.4c-2.5,10.2-4.3,22.7-5.5,28c0,0-0.6,2.6-0.8,3.6
	c0,0.1,0,0.2-0.1,0.3l0,0c0,0.1,0,0.1,0,0.1s0,0.1-0.1,0.2c0,0,0,0.1,0,0.1c-1.3,7.4,1.1,4.5,1.1,18.7l-0.8,39h-7.1l-8.3-52.2
	c-0.1-0.6-0.2-1.2-0.1-1.8c0.2-6.9,7.4-69.2,9.7-88.3c0.1-0.4,0.1-0.9,0.2-1.3c0.3-2.7,0.5-4.3,0.5-4.3l20.8-0.8
	c0.2,1.8,0.6,3.6,1,5.3c0.4,1.6,0.8,3.1,1.4,4.6c3.5,9.8,8.7,13,8.3,28C1330.5,367.4,1328.2,398.6,1328.2,398.6z"/>
<path class="st12" d="M1275.3,247l-0.3-7.5c-0.1-0.1-0.2-0.1-0.4-0.1c-0.4,0-0.8,0.6-0.9,1.7c-0.1,0.5-0.5,8.9-0.5,8.9L1275.3,247z"
	/>
<path class="st12" d="M1277,247.5l-0.2-9.4c-0.1-0.1-0.3-0.1-0.4-0.1c-0.4,0-0.8,0.6-0.9,1.7c0,0.5-0.5,8.9-0.5,8.9L1277,247.5z"/>
<path class="st12" d="M1278.9,248.3l-0.3-8.1c-0.1-0.1-0.3-0.1-0.4-0.1c-0.4-0.1-0.8,0.6-1,1.7c-0.1,0.5-0.4,8.7-0.4,8.7
	L1278.9,248.3z"/>
<path class="st12" d="M1273.8,248.7l-0.4-6.3c-0.1-0.1-0.2-0.1-0.3-0.1c-0.4,0-0.8,0.6-0.9,1.5c-0.1,0.4-0.2,5.1-0.2,5.1l-0.8,4.2
	L1273.8,248.7z"/>
<path class="st12" d="M1271.2,262.2l3-2.3c0.4-0.4,0.7-0.9,0.7-1.5c-0.1-1,0.2-3.8,0.9-3.7c2.2,0.1,1.9-2.5,2.3-3.3
	c0.9-1.9,3.4-1.7,3.2-1.2c-0.8,1.1-1.6,2.3-2.3,3.6c-0.9,3.1-1.1,2.3-2.5,5.6c-0.3,1.2-0.5,2.4-0.5,3.6"/>
<path class="st12" d="M1276.1,262.9l-1.7-0.3c1.2-2.4,3.2-6.5,3.2-6.7s1.2-7.7,1.2-7.7l-3.2-1.8l-3.6,2.6l-0.9,3.6
	c-0.2,0.7-0.3,1.5-0.3,2.2c-0.1,1.1-0.1,2.2,0.1,3.3c0.3,1.3,0.4,2.7,0.3,4l0,0l-3.5,34c-0.4,3,1.3,5.6,3.8,5.8
	c2.3,0.2,4.5-1.8,4.9-4.5L1276.1,262.9z"/>
<path class="st17" d="M1264.1,303.9l3.3-21.5c0.1-0.4,0.4-0.7,0.8-0.6h9.2c0.4,0,0.7,0.2,0.8,0.6l5.8,22.6l-10.2,8.7l-8.4-6.4
	C1264.3,306.4,1263.8,305.2,1264.1,303.9z"/>
<path class="st17" d="M1309.8,292.2l-4.7-11.9c-0.1-0.3-0.1-0.7,0-1.1l2-4.8c0.3-0.6,0.1-1.4-0.5-1.8c-1.9-1.3-3.9-2.5-6-3.6
	l-0.3-0.8c-0.1-0.2-0.4-0.1-0.9,0.2c-0.8-0.5-1.8-0.6-2.7-0.5c-2.3,0.9-26.1,31.9-30.8,38c-0.4,0.6-0.4,1.4,0.2,1.9l6.5,6.1
	c0.6,0.5,1.5,0.5,2-0.1c0,0,0,0,0.1-0.1l17-20.6c0.2-0.2,0.3-0.4,0.3-0.7c0.8-4.1,7,7.3,8.5,10.1c0.2,0.4,0.7,0.7,1.2,0.8
	c0.8,0,1.6-0.4,2.2-1l5.2-6C1310,295.3,1310.3,293.6,1309.8,292.2z"/>
<path class="st18" d="M1296.5,268l-13,34.6l-8.8,11.2c0,0,22.4-21.3,22.6-21.6S1296.5,268,1296.5,268z"/>
<path class="st19" d="M1308,269.2L1308,269.2L1308,269.2z"/>
<path class="st19" d="M1307.8,268.5l0.3,0.7C1307.9,269,1307.8,268.7,1307.8,268.5z"/>
<path class="st17" d="M1297.7,308.8c-3.2-9.5-2.7-14.1-2.6-24.9c0.2-5.3,0.6-10.6,1.4-15.9l10.7-4.6c0,0,0.4,4.3,0.6,5l0,0
	c0.1,0.3,0.2,0.5,0.3,0.8c0,0.1,0.1,0.1,0.1,0.2c0.1,0.1,0.1,0.2,0.2,0.4c0,0.1,0.1,0.1,0.1,0.1c0.1,0.1,0.2,0.2,0.3,0.2
	c0.1,0.1,0.3,0.2,0.4,0.2l1,14V284v-0.3l0.1-0.5l0.1-0.6l0.6-4.9c0-0.3,0.1-0.6,0.1-0.9l0.1-1l0.1-0.6l0.1-0.6l0.1-0.6l0.4-3.5
	c0.5,0,0.9,0,1.3-0.1c3-0.7,4-2.5,4.1-4.7c0,0,0-2.7,0-2.8l14.2,5.5c0,1.1-6.5,40.2-6.5,40.2h-27.3L1297.7,308.8z"/>
<path class="st18" d="M1318.4,308.8c0,0,4.6-31.8,5.5-34.9s3.6-7,7.9-5.1l-6.8,40L1318.4,308.8z"/>
<path class="st12" d="M1346.8,359.7c0-0.1,0-0.2-0.1-0.4c-0.3-2.4-1.5-7.9-1.5-7.9l-1-39.2c-0.2-3.3-2.7-5.7-5.4-5.4
	c-2.5,0.3-4.3,2.9-4.2,5.9l5.2,36.3l0,0l0.3,1.9l0,0c0.5,3.4,0.2,4.9-0.3,5.4c-0.5,0.4-0.7,1-0.7,1.6c0,0.7,0,1.5,0,2
	c-0.2,2-0.7,3.9-1.5,5.8c-0.3,0.9-0.6,1.5-0.6,1.5l0,0c-0.1,0.2,0,0.4,0.2,0.5c0.5,0.3,1.7-0.4,2.2-1.2l0,0v-0.1
	c0.2-0.3,0.4-0.6,0.5-0.9c0.3-0.6,0.6-1.3,0.9-1.9c0,1.6-0.3,3.9-0.3,4.2h-0.1l-1.6,1.8c0,0-1.7,0.1-1.9,1.1v0.1
	c-0.5,0.2-0.9,0.8-0.8,1.2h0.1c-0.1,0.1-0.2,0.1-0.2,0.2c-0.3,0.3-0.4,0.7-0.3,1.1c0.1,0.1,0.2,0.2,0.3,0.1l1-0.4l0.1,0
	c-0.2,0.3-0.4,0.6-0.4,1c0,0.2,0.1,0.3,0.3,0.3c0,0,0.1,0,0.1,0l7.3-3.9c0.1,0,0.1-0.1,0.2-0.1
	C1345.5,369.2,1347,360.8,1346.8,359.7z"/>
<path class="st12" d="M1340.8,362.5l-0.1-0.3C1340.7,362.2,1340.8,362.3,1340.8,362.5z"/>
<path class="st17" d="M1346.3,345.5l-8.5,0.5c-0.5,0-1-0.3-1.2-0.8l-6.9-20.5c-0.2-0.7-0.4-1.4-0.5-2.1c-0.8-6.3-4.8-37.5-4.8-42.4
	c0-2.5-0.1-6,1.4-8.7c0.4-0.6,0.8-1.2,1.4-1.7c0.7-0.7,1.6-1.1,2.5-1.3c1-0.3,2,0.1,2.7,0.9l16.5,50.3c0.3,1,0.5,2,0.4,3.1
	l-1.9,21.7C1347.3,345,1346.9,345.5,1346.3,345.5z"/>
<path class="st20" d="M1311,362.2c-2.5,10.2-5.7,30-6.8,35.3c0,0,1.5-23.5,1.6-24.5c1.1-14.7,1.4-23-2-31.9l-2.4-5.3
	C1306.7,340.8,1309.6,347.9,1311,362.2z"/>
<path class="st20" d="M1322.7,313.4L1322.7,313.4l-23.8-3.6v-1.3h0.2l22.3,0.3C1321.7,310.4,1322.2,311.9,1322.7,313.4z"/>
<path class="st21" d="M1300.8,250.6c-0.7,1.2-1.5,2.4-2.4,3.4c-0.6,0.6-1.4,0.9-2.3,0.9c-0.2-0.2-0.3-0.4-0.3-0.6
	c0-0.2,0.1-0.4,0.2-0.5c0.8-0.2,1.5-0.5,2.2-0.8c0.3-0.1,0.5-0.3,0.8-0.5C1299.7,251.9,1300.3,251.3,1300.8,250.6z"/>
<path class="st21" d="M1300.7,250.6L1300.7,250.6l-0.2,0.1l-0.2,0.1c-0.2,0.1-0.3,0.2-0.6,0.3h-0.1c-0.8,0.4-1.7,0.7-2.6,0.8
	c-0.3,0-0.7,0-1,0c-0.6-0.1-0.9-0.2-0.9-0.7l0.1-0.3c0.5-0.1,0.9,0,1.3,0.2C1298,251.5,1299.5,251.3,1300.7,250.6z"/>
<path class="st16" d="M1225.6,360.8v2.6c-0.1-2.2-2-3.8-4.1-3.7h-131.5c-2.2-0.1-4,1.5-4.1,3.7v-2.6c0-1.3,0.6-2.5,1.6-3.3l1.3-1.1
	l0.8-0.7l0.1-0.1l1.2-1l1-0.9c1-0.8,2.2-1.3,3.5-1.3H1216c1.3,0,2.5,0.4,3.5,1.3l1,0.9l1.2,1l0.1,0.1l0.8,0.7l1.3,1.1
	C1224.9,358.3,1225.5,359.5,1225.6,360.8z"/>
<path class="st22" d="M1225.6,363.4v85.4c0,4.7-3.1,8.6-6.9,8.6h-126.1c-3.8,0-6.8-3.9-6.8-8.6v-85.4c0-2.9,1.8-5.2,4.1-5.2h131.5
	C1223.7,358.2,1225.6,360.5,1225.6,363.4z"/>
<polygon class="st22" points="1221.9,355.7 1089.4,355.7 1090.8,354.6 1220.6,354.6 1221.7,355.6 "/>
<polygon class="st22" points="1202.6,355.7 1160.5,285.1 1158.4,286.4 1200,355.7 "/>
<polygon class="st20" points="1225.6,370.4 1225.6,396.5 1085.8,425.6 1085.8,414.6 "/>
<polygon class="st20" points="1225.6,402.2 1225.6,417 1146.3,433.7 1146.3,427.5 "/>
<path class="st12" d="M1176.7,325.5l-38.4-4.5c-3,0-5.5,1.9-5.8,4.5l0,0c-0.3,2.8,2.2,5.2,5.5,5.3l39.2-0.2"/>
<path class="st12" d="M1134.8,329.8c2.2,1.7,5.6,0.8,7.4-2l21-31.4c2-3.1-9.4-5.1-11.3-2l-17.8,28
	C1132.5,324.9,1132.8,328.1,1134.8,329.8L1134.8,329.8z"/>
<path d="M1152.9,317.8c-1.6,0-5.9,0-8.4,0c-0.8,0-0.8,0.1-1.3-0.5l-6.1-8.4c-0.3-0.3-0.3-0.8,0-1.1c0,0,0,0,0,0l15.8-19.9
	c0.4-0.7,5-2.9,7.7-1.4c1.7,0.9,2.9,2.5,3.4,4.3c0.5,1.7,0.3,3.5-0.5,5.1l-9.5,21.2C1153.9,317.6,1153.6,317.8,1152.9,317.8z"/>
<path class="st12" d="M1130.3,485.2l-1.1-0.7c-1.6-1.2-2.1-3.4-1-5.1l5.6-9.2c0.9-1.6,3-2.2,4.6-1.2c0.1,0,0.1,0.1,0.2,0.1l1.1,0.7
	c1.6,1.2,2.1,3.4,1,5.1l-5.6,9.2c-0.9,1.6-3,2.2-4.6,1.2C1130.4,485.3,1130.3,485.2,1130.3,485.2z"/>
<path class="st23" d="M1177,368.3l-8.1,40.1l-14,53.1l-4.7,17.7c-0.2,0.7-0.9,1.2-1.7,1.1l-4.2-0.5l-1.3-0.2l-0.6-0.1
	c-0.7-0.1-1.3-0.4-1.8-0.9l-0.2-0.2l-2.5-2.8c-0.7-0.7-1.6-1.2-2.6-1.4l-6.3-1.1c-0.7-0.1-1.3-0.5-1.7-1.1l-1.5-2.2
	c-0.3-0.4-0.3-0.9-0.1-1.3l12.7-27.4c6.5-18.9,11.9-29.7,12.7-44.1c0.3-4.9,0.4-9.7,0.3-14.2c0-11.3-0.7-20.1-0.7-20.1
	c0.4-8.2,1.5-12.7,6.5-20.8l7.4-15.5l11.1-0.1l-4.7,8.8l4.1,23.9L1177,368.3z"/>
<path class="st24" d="M1177,368.3l-8.1,40.1l-14,53.1l-4.7,17.7c-0.2,0.7-0.9,1.2-1.7,1.1l-4.2-0.5l-1.3-0.2
	c6.6-16.7,12-33.7,16.3-51.1c3.2-13.6,0.1-26.5-1.3-31.5c-1.7-5.7-4.3-11.8-5.3-18.8c0-11.3-1.8-15.3-1.8-15.3
	c0.4-8.2,1.5-12.7,6.5-20.8l7.4-15.5l11.1-0.1l-1.4,5.6l1,18.8L1177,368.3z"/>
<path class="st12" d="M1167.3,493.7h-1.5c-1.9,0-3.4-1.5-3.4-3.4c0,0,0,0,0,0v-11.6c0-1.9,1.5-3.4,3.4-3.4l0,0h1.5
	c1.9,0,3.4,1.5,3.4,3.4c0,0,0,0,0,0v11.6C1170.7,492.2,1169.2,493.7,1167.3,493.7L1167.3,493.7z"/>
<path class="st14" d="M1138.5,485.1l8.4,2.5c2.9,0.9,4.8,3.5,4.8,6.5v0.7h-15.8"/>
<path class="st14" d="M1135.8,494.9l-13.1-10l1.5-2.4c0.8-1.3,1.9-2.4,3.2-3.1l0.9-0.5l2.8,1.9c0.8,0.5,1.8,0.5,2.6,0l1.4-1l4.2,0.8
	c0.5,0.1,0.9,0.5,0.9,1l0.3,2.1c0.1,0.6,0.3,1.2,0.8,1.7l1.2,1.5"/>
<path class="st14" d="M1173.8,485l1.3,1.6c0.4,0.5,0.9,0.8,1.5,1l10.2,3c2.9,0.9,4.8,3.5,4.8,6.5v0.7h-30.8v-2.9
	c0-1.6,0.4-3.1,1.1-4.4l0.5-1h3.4c0.9,0,1.8-0.6,2.1-1.5l0.7-1.7l4-1.7C1173,484.5,1173.5,484.6,1173.8,485z"/>
<path class="st23" d="M1183.9,410.8c0,0-2.2,62.9-2.5,71.4c0,0.4-0.3,0.7-0.7,0.7c-0.1,0-0.1,0-0.2,0l-2.2-0.7
	c-0.8-0.3-1.8-0.2-2.6,0.1l-8.1,3.4c-0.7,0.3-1.5,0.3-2.1-0.1l-3.5-2.2c-1.1-0.6-1.6-1.2-2.8-1.1h-3.6c-1,0.1-1.5-0.5-1.4-1.3
	l9.3-59.8c1.8-13.2-2.2-19.3-3.8-24.2c-3-9.4-12.7-27.4-13.3-36.1c-0.1-1.9,0-3.8,0.3-5.7c0.1-0.4,0.2-0.9,0.3-1.3
	c0.2-0.9,0.4-1.6,0.7-2.4c3-9.3,5.3-12.5,7.8-17.3l5.6-8.6l13.5,6.7l2.3,19.2l0.4,3.3l0.6,5L1183.9,410.8z"/>
<path class="st24" d="M1177.8,359.7c-10.6,1.4-21.4-0.2-31.1-4.6c0.1-0.4,0.2-0.9,0.3-1.3l0,0l30.2,0.9L1177.8,359.7z"/>
<polygon class="st22" points="1114.4,355.1 1156.3,285.1 1158.4,286.4 1117,355.1 "/>
<path class="st25" d="M1182.8,311.8c-0.2,0.6-0.7,2.1-1.2,3.8l0,0c-2.6,6.7-4.5,13.8-4.6,21c-0.1,9,1.7,14.5,2.3,16.2
	c0.1,0.3,0,0.7-0.3,0.9c-1.5,0.9-6.4,3.4-16,3.2c-9-0.2-18.2-3-18.4-5.4c0,0,7.3-19.3,6.2-25.6s-2.1-9.7-2.1-18.5
	c0-12.1,2.1-17.4,7.6-24.8c0.1-0.2,0.4-0.3,0.6-0.3l11,1.3c0.4,0,0.8,0.3,1,0.6l12.6,19.1C1183.2,305.9,1183.7,309,1182.8,311.8z"/>
<path d="M1179.6,318c0,0-4,8.9-4,10.7l-2.2-3c-0.4-0.4-1-0.6-1.6-0.6l-3.5,0.4c-0.5,0-0.9-0.2-1.2-0.6l-14.3-26.5l12.3-7.1l7,19.5
	c0.4,0.4,4.3,2.5,4.2,3C1175.7,316.6,1178.9,321.3,1179.6,318z"/>
<path d="M1177.9,316.8c-0.4,0.7-1.1,1.2-1.9,1.4l-8,1.4c-0.4,0.2-0.9,0-1.1-0.4l-13-19.6c-0.4-0.7-0.7-1.4-0.9-2.1l0,0
	c-0.8-2.9,0.3-6,2.7-7.8c1.5-1.2,3.4-1.6,5.3-1.2c1.7,0.3,3.2,1.7,4.4,3.2l10.8,17.9C1176.5,309.8,1179,314.9,1177.9,316.8z"/>
<path class="st12" d="M1199.5,289.8v-1.5c0.2-1.5-0.2-2.9-1-4.1c-0.8-1.4-1.8-2.9-2.7-4.2c0-2.1,0.1-6.2,0.1-6.6
	c-0.1-1.2-0.9-1.4-1.3-1.3c-0.1,0-0.3,0.1-0.3,0.1l-0.4,4.8l0,0c0-1.2,0.1-7.1,0-7.6c-0.1-1.3-0.8-1.9-1.3-1.8
	c-0.1,0-0.3,0.1-0.4,0.2l-0.3,3.2c-0.2-2-0.3-3.9-0.3-4.1c-0.2-1.2-0.9-1.8-1.4-1.8c-0.2,0-0.3,0.1-0.4,0.2l0.1,2.4
	c-0.3-0.4-0.8-0.7-1.3-0.6l0.9,9.7c-0.1,0.8,0,1.6,0.3,2.3l2.3,4.2c1.1,2.4,2.6,4.2,2.5,4.9c-0.1,1.8-3,19-5.2,29.9l-24.1-26.2
	c-2.8-2.9-7-3.3-9.4-0.9s-2,6.7,0.8,9.6c0,0,30.2,28.9,31.1,29.6c3.6,3.2,7.7,2.5,8.6-4.3C1197.2,320,1199.5,289.8,1199.5,289.8z"/>
<path class="st25" d="M1181.9,309c-0.6,2.5-1.4,4.9-2.3,7.3c-0.2,0.5-0.7,0.8-1.2,0.9l-9.5,2.7c-0.1,0-0.2,0-0.3-0.1l-14.4-19.2
	c-0.4-0.6-0.8-1.3-1-2.1l0,0c-0.9-2.8,0-6,2.2-7.9c1.5-1.2,3.4-1.8,5.3-1.7c1.8,0.2,3.4,1,4.6,2.3l16.4,16.5
	C1182.1,308.1,1182,308.4,1181.9,309z"/>
<ellipse class="st26" cx="1169.1" cy="258.3" rx="11.7" ry="11.9"/>
<polyline class="st14" points="1163.6,255.7 1163.6,278.7 1180.7,278.7 1180.8,257.6 "/>
<path class="st12" d="M1181.5,264l-2.3-4c-0.3-0.4-0.4-0.9-0.3-1.4c0.7-5.7-0.9-6.1-2.5-8.8c0,0,0-0.1,0-0.1
	c-2.5-4-6.9-5.9-11.9-5.9c-7.7,0-13.8,5.6-13.8,13.4c0,5,2.6,9.6,6.8,12.1c0.3,0.2,0.6,0.6,0.6,1l0.3,8.4c0,0.1,0,0.2,0,0.2
	l-0.6,3.6c-0.1,0.5,0.1,0.9,0.5,1.2c1.5,0.8,3.2,1.3,4.9,1.4c5.5,0.6,4.7-1.3,4.7-1.3l0,0l0.2-2.4c0,0,0-0.1,0-0.1l0.4-4.2
	c0.3-1.1,1.3-1.7,2.4-1.5c0.1,0,0.1,0,0.2,0c0,0,6.2,2.5,7.4-1.1c0.2-0.5,0.2-1,0.1-1.6c-0.1-0.9-0.1-1.4,0.4-1.9l0.1-0.1l0,0
	c0.1-0.1,0.2-0.3,0.2-0.4c0.1-0.1,0.1-0.2,0.1-0.4c0-0.2,0-0.4-0.2-0.6h-0.5l0.2-0.1c0.1,0,0.1,0,0.2-0.1c0,0,0.1,0,0.1,0
	c0.3-0.2,0.7-0.5,0.7-0.8v-0.4c0-0.1,0-0.2-0.1-0.3l-0.2-0.1l-0.3-0.8c0-0.3,0-0.6,0-0.9V266c0-0.1,0.1-0.3,0.2-0.3l1.7-0.5
	c0.4-0.1,0.6-0.5,0.5-0.8C1181.6,264.2,1181.6,264.1,1181.5,264z"/>
<path class="st14" d="M1146.8,256.6c0-8.2,6.9-14.1,15.5-14.1c5.8,0,12.4,3.1,14.4,8c0,0-8.3,13.1-13.4,14.2l-1.3-2.9
	c-0.4-1.2-1.7-1.8-2.9-1.4c-0.4,0.1-0.7,0.3-0.9,0.6c-0.6,0.6-0.9,1.4-0.8,2.2c0.1,1.2,0.8,2.2,1.8,2.7l0,0c0,0,5.1,2.8,2.5,6.9
	l-3.9,6v-2.4c0,0,0.2-4.8-3-6.8l-0.1-0.1c-0.2-0.1-0.4-0.2-0.6-0.3l0,0C1149.6,266.5,1146.8,261.8,1146.8,256.6z"/>
<path class="st14" d="M1146.8,255.7v23h17.2c0,0-0.3-8.8-2.5-11"/>
<path class="st13" d="M1177.7,258.1l-1.4-0.1l-1.3-0.1c-0.4,0-0.8,0.1-1.1,0.4c-0.2,0.1-0.3,0.3-0.5,0.4l-0.4,0.5
	c-0.1,0.1-0.2,0.1-0.3,0c0,0,0,0,0,0c-0.1-0.1-0.1-0.2,0-0.3l0.4-0.6c0.1-0.2,0.3-0.4,0.5-0.6c0.4-0.4,0.9-0.6,1.4-0.7
	c0.6-0.1,1-0.1,1.4-0.1l1.4-0.1c0.3,0,0.6,0.3,0.6,0.6c0,0.3-0.2,0.6-0.5,0.6C1177.8,258.1,1177.7,258.1,1177.7,258.1z"/>
<ellipse class="st13" cx="1176.4" cy="260" rx="0.7" ry="1.1"/>
<path class="st13" d="M1178.1,258.9c-0.4,0.1-0.7,0.2-1.1,0.2c-0.4,0-0.7,0.1-1.1,0.2c-0.4,0.1-0.7,0.3-1,0.5
	c-0.3,0.2-0.7,0.4-1,0.5c0.5-0.5,1.2-1,1.9-1.3c0.4-0.1,0.8-0.2,1.1-0.2C1177.3,258.9,1177.7,258.9,1178.1,258.9z"/>
<path class="st27" d="M1180.6,262.4c0,0-0.7,2.6-8.4,3.8l-4.1,1l3,8.4l3.3,1.3c2.2,0.9,4.3,0.4,5.3-2.2l2.8-6.5
	c0.5-1.2,0.6-1.8,0.1-2.6L1180.6,262.4z"/>
<polygon class="st27" points="1168.3,267.6 1163.3,264.6 1164,264.4 1168.5,267.1 "/>
</svg>
