<svg xmlns="http://www.w3.org/2000/svg" xmlns:xlink="http://www.w3.org/1999/xlink" width="700" zoomAndPan="magnify" viewBox="0 0 525 525.000007" height="700" preserveAspectRatio="xMidYMid meet" version="1.0"><defs><clipPath id="9e970e2bd1"><path d="M 0.5 0 L 524.5 0 L 524.5 524 L 0.5 524 Z M 0.5 0 " clip-rule="nonzero"/></clipPath><clipPath id="61b49a60a6"><path d="M 262.5 0 C 117.800781 0 0.5 117.300781 0.5 262 C 0.5 406.699219 117.800781 524.003906 262.5 524.003906 C 407.199219 524.003906 524.5 406.699219 524.5 262 C 524.5 117.300781 407.199219 0 262.5 0 " clip-rule="nonzero"/></clipPath><clipPath id="3980e4342b"><path d="M 119.304688 161.226562 L 406.007812 161.226562 L 406.007812 362 L 119.304688 362 Z M 119.304688 161.226562 " clip-rule="nonzero"/></clipPath></defs><g clip-path="url(#9e970e2bd1)"><g clip-path="url(#61b49a60a6)"><path fill="#000000" d="M 0.5 0 L 524.5 0 L 524.5 524.003906 L 0.5 524.003906 Z M 0.5 0 " fill-opacity="1" fill-rule="nonzero"/></g></g><g clip-path="url(#3980e4342b)"><path fill="#ffffff" d="M 399.75 192.816406 C 399.339844 191.304688 398.832031 189.828125 398.230469 188.382812 C 397.625 186.9375 396.929688 185.539062 396.144531 184.183594 C 395.359375 182.832031 394.488281 181.53125 393.53125 180.292969 C 392.574219 179.050781 391.542969 177.875 390.433594 176.769531 C 389.324219 175.664062 388.148438 174.632812 386.90625 173.679688 C 385.660156 172.722656 384.363281 171.855469 383.003906 171.070312 C 381.648438 170.285156 380.246094 169.59375 378.796875 168.988281 C 377.347656 168.386719 375.867188 167.882812 374.355469 167.472656 C 352.089844 161.40625 262.476562 161.40625 262.476562 161.40625 C 262.476562 161.40625 172.859375 161.582031 150.589844 167.652344 C 149.078125 168.058594 147.597656 168.566406 146.148438 169.167969 C 144.703125 169.769531 143.300781 170.464844 141.941406 171.25 C 140.585938 172.035156 139.285156 172.902344 138.042969 173.855469 C 136.796875 174.8125 135.621094 175.839844 134.511719 176.949219 C 133.402344 178.054688 132.371094 179.230469 131.414062 180.46875 C 130.460938 181.710938 129.589844 183.007812 128.800781 184.363281 C 128.015625 185.71875 127.320312 187.117188 126.71875 188.5625 C 126.113281 190.007812 125.605469 191.484375 125.195312 192.996094 C 119.304688 215.222656 119.304688 261.6875 119.304688 261.6875 C 119.304688 261.6875 119.304688 308.152344 125.378906 330.558594 C 125.789062 332.066406 126.296875 333.546875 126.902344 334.992188 C 127.503906 336.433594 128.199219 337.835938 128.984375 339.191406 C 129.773438 340.542969 130.644531 341.839844 131.597656 343.082031 C 132.554688 344.324219 133.585938 345.5 134.695312 346.605469 C 135.804688 347.710938 136.980469 348.742188 138.226562 349.695312 C 139.46875 350.648438 140.769531 351.519531 142.125 352.304688 C 143.484375 353.089844 144.886719 353.78125 146.332031 354.382812 C 147.78125 354.988281 149.261719 355.492188 150.773438 355.902344 C 173.039062 361.96875 262.65625 361.96875 262.65625 361.96875 C 262.65625 361.96875 352.273438 361.96875 374.542969 355.90625 C 376.058594 355.496094 377.539062 354.992188 378.984375 354.390625 C 380.433594 353.785156 381.835938 353.09375 383.191406 352.308594 C 384.550781 351.523438 385.851562 350.65625 387.09375 349.699219 C 388.335938 348.746094 389.511719 347.714844 390.621094 346.609375 C 391.730469 345.503906 392.765625 344.328125 393.71875 343.085938 C 394.675781 341.847656 395.546875 340.546875 396.332031 339.195312 C 397.121094 337.839844 397.8125 336.441406 398.417969 334.996094 C 399.019531 333.550781 399.527344 332.074219 399.9375 330.5625 C 406.007812 308.335938 406.007812 261.6875 406.007812 261.6875 C 406.007812 261.6875 405.828125 215.222656 399.75 192.816406 Z M 399.75 192.816406 " fill-opacity="1" fill-rule="nonzero"/></g><path fill="#000000" d="M 233.949219 304.660156 L 308.292969 261.6875 L 233.945312 218.710938 Z M 233.949219 304.660156 " fill-opacity="1" fill-rule="nonzero"/></svg>