<svg xmlns="http://www.w3.org/2000/svg" xmlns:xlink="http://www.w3.org/1999/xlink" width="700" zoomAndPan="magnify" viewBox="0 0 525 525.000007" height="700" preserveAspectRatio="xMidYMid meet" version="1.0"><defs><clipPath id="cef5471ad0"><path d="M 0.5 0 L 524.5 0 L 524.5 524 L 0.5 524 Z M 0.5 0 " clip-rule="nonzero"/></clipPath><clipPath id="982b6e2da6"><path d="M 262.5 0 C 117.800781 0 0.5 117.300781 0.5 262 C 0.5 406.699219 117.800781 524 262.5 524 C 407.199219 524 524.5 406.699219 524.5 262 C 524.5 117.300781 407.199219 0 262.5 0 " clip-rule="nonzero"/></clipPath><clipPath id="e34a714247"><path d="M 39.800781 39.300781 L 485.199219 39.300781 L 485.199219 484.703125 L 39.800781 484.703125 Z M 39.800781 39.300781 " clip-rule="nonzero"/></clipPath><clipPath id="447ef3a05b"><path d="M 262.5 39.300781 C 139.503906 39.300781 39.800781 139.007812 39.800781 262 C 39.800781 384.996094 139.503906 484.703125 262.5 484.703125 C 385.496094 484.703125 485.199219 384.996094 485.199219 262 C 485.199219 139.007812 385.496094 39.300781 262.5 39.300781 " clip-rule="nonzero"/></clipPath><clipPath id="d749104829"><path d="M 19.976562 33.6875 L 505.050781 33.6875 L 505.050781 518.761719 L 19.976562 518.761719 Z M 19.976562 33.6875 " clip-rule="nonzero"/></clipPath></defs><g clip-path="url(#cef5471ad0)"><g clip-path="url(#982b6e2da6)"><path fill="#000000" d="M 0.5 0 L 524.5 0 L 524.5 524 L 0.5 524 Z M 0.5 0 " fill-opacity="1" fill-rule="nonzero"/></g></g><g clip-path="url(#e34a714247)"><g clip-path="url(#447ef3a05b)"><path fill="#ffffff" d="M 39.800781 39.300781 L 485.199219 39.300781 L 485.199219 484.703125 L 39.800781 484.703125 Z M 39.800781 39.300781 " fill-opacity="1" fill-rule="nonzero"/></g></g><g clip-path="url(#d749104829)"><path fill="#000000" d="M 262.511719 33.6875 C 129.117188 33.6875 19.976562 142.828125 19.976562 276.222656 C 19.976562 409.621094 129.117188 518.761719 262.511719 518.761719 C 395.910156 518.761719 505.050781 409.621094 505.050781 276.222656 C 505.050781 142.828125 395.910156 33.6875 262.511719 33.6875 Z M 360.910156 383.085938 C 356.351562 383.085938 354.070312 380.804688 349.511719 378.527344 C 315.289062 357.984375 271.949219 346.585938 226.328125 346.585938 C 201.222656 346.585938 173.867188 351.144531 151.042969 355.703125 C 146.484375 355.703125 141.921875 357.984375 139.644531 357.984375 C 130.523438 357.984375 123.683594 351.144531 123.683594 342.023438 C 123.683594 332.90625 128.246094 326.066406 137.363281 326.066406 C 167.027344 319.226562 196.6875 314.667969 228.628906 314.667969 C 281.089844 314.667969 329.015625 328.34375 370.078125 351.167969 C 374.636719 355.726562 379.199219 358.007812 379.199219 367.128906 C 374.589844 378.527344 367.75 383.085938 360.910156 383.085938 Z M 385.988281 319.226562 C 381.429688 319.226562 376.871094 316.945312 372.308594 314.667969 C 333.527344 289.5625 278.761719 275.882812 219.460938 275.882812 C 189.800781 275.882812 162.417969 280.445312 141.898438 285.003906 C 137.339844 287.285156 135.058594 287.285156 130.5 287.285156 C 119.101562 287.285156 112.238281 278.164062 112.238281 269.019531 C 112.238281 257.621094 116.796875 253.0625 128.195312 248.476562 C 155.578125 241.636719 182.960938 234.796875 221.742188 234.796875 C 285.628906 234.796875 344.925781 250.757812 395.132812 280.417969 C 401.972656 284.980469 406.53125 291.820312 406.53125 298.683594 C 404.253906 310.082031 397.414062 319.226562 385.988281 319.226562 Z M 415.652344 246.199219 C 411.09375 246.199219 408.8125 243.917969 401.972656 241.636719 C 356.351562 216.535156 290.1875 200.578125 226.300781 200.578125 C 194.359375 200.578125 160.136719 205.136719 130.476562 211.976562 C 125.914062 211.976562 123.636719 214.253906 116.796875 214.253906 C 103.117188 216.558594 93.972656 205.136719 93.972656 191.457031 C 93.972656 177.777344 100.8125 170.914062 109.933594 168.632812 C 146.457031 159.515625 185.242188 154.953125 226.300781 154.953125 C 297.027344 154.953125 370.03125 170.914062 427.074219 200.578125 C 433.914062 205.136719 440.753906 211.976562 440.753906 223.398438 C 438.472656 237.078125 429.332031 246.199219 415.652344 246.199219 Z M 415.652344 246.199219 " fill-opacity="1" fill-rule="nonzero"/></g></svg>