<svg xmlns="http://www.w3.org/2000/svg" xmlns:xlink="http://www.w3.org/1999/xlink" width="700" zoomAndPan="magnify" viewBox="0 0 525 525.000007" height="700" preserveAspectRatio="xMidYMid meet" version="1.0"><defs><clipPath id="216f77434a"><path d="M 0.5 0 L 524.5 0 L 524.5 524 L 0.5 524 Z M 0.5 0 " clip-rule="nonzero"/></clipPath><clipPath id="019a6c5c76"><path d="M 262.5 0 C 117.800781 0 0.5 117.300781 0.5 262 C 0.5 406.699219 117.800781 524 262.5 524 C 407.199219 524 524.5 406.699219 524.5 262 C 524.5 117.300781 407.199219 0 262.5 0 " clip-rule="nonzero"/></clipPath><clipPath id="542d076454"><path d="M 0.5 0.476562 L 524.5 0.476562 L 524.5 523.730469 L 0.5 523.730469 Z M 0.5 0.476562 " clip-rule="nonzero"/></clipPath></defs><g clip-path="url(#216f77434a)"><g clip-path="url(#019a6c5c76)"><path fill="#ffffff" d="M 0.5 0 L 524.5 0 L 524.5 524 L 0.5 524 Z M 0.5 0 " fill-opacity="1" fill-rule="nonzero"/></g></g><g clip-path="url(#542d076454)"><path fill="#000000" d="M 262.511719 0.660156 C 117.515625 0.660156 0.0195312 118.246094 0.0195312 263.355469 C 0.0195312 393.675781 95.015625 501.9375 219.328125 522.410156 L 219.328125 344.324219 L 152.515625 344.324219 L 152.515625 266.3125 L 219.328125 266.3125 L 219.328125 209.679688 C 219.328125 148.269531 269.101562 106.648438 330.460938 106.648438 C 357.734375 106.648438 374.777344 110.742188 374.777344 110.742188 L 374.777344 176.242188 L 330.460938 176.242188 C 312.054688 176.242188 297.054688 191.253906 297.054688 209.679688 L 297.054688 266.3125 L 368.640625 266.3125 L 358.640625 344.324219 L 297.054688 344.324219 L 297.054688 523.546875 C 425.457031 506.488281 524.542969 396.40625 524.542969 263.355469 C 524.769531 118.246094 407.277344 0.660156 262.511719 0.660156 Z M 262.511719 0.660156 " fill-opacity="1" fill-rule="nonzero"/></g></svg>