<svg xmlns="http://www.w3.org/2000/svg" xmlns:xlink="http://www.w3.org/1999/xlink" width="700" zoomAndPan="magnify" viewBox="0 0 525 525.000007" height="700" preserveAspectRatio="xMidYMid meet" version="1.0"><defs><clipPath id="598c485049"><path d="M 0.5 0 L 524.5 0 L 524.5 524 L 0.5 524 Z M 0.5 0 " clip-rule="nonzero"/></clipPath><clipPath id="3fcde51f76"><path d="M 262.5 0 C 117.800781 0 0.5 117.300781 0.5 262 C 0.5 406.699219 117.800781 524 262.5 524 C 407.199219 524 524.5 406.699219 524.5 262 C 524.5 117.300781 407.199219 0 262.5 0 " clip-rule="nonzero"/></clipPath><clipPath id="989b398b98"><path d="M 110.238281 109.738281 L 414.910156 109.738281 L 414.910156 414.410156 L 110.238281 414.410156 Z M 110.238281 109.738281 " clip-rule="nonzero"/></clipPath></defs><g clip-path="url(#598c485049)"><g clip-path="url(#3fcde51f76)"><path fill="#000000" d="M 0.5 0 L 524.5 0 L 524.5 524 L 0.5 524 Z M 0.5 0 " fill-opacity="1" fill-rule="nonzero"/></g></g><g clip-path="url(#989b398b98)"><path fill="#ffffff" d="M 262.507812 137.210938 C 303.160156 137.210938 307.96875 137.34375 324.054688 138.078125 C 338.875 138.746094 346.953125 141.214844 352.359375 143.351562 C 359.433594 146.089844 364.507812 149.425781 369.847656 154.765625 C 375.1875 160.105469 378.460938 165.179688 381.265625 172.253906 C 383.332031 177.597656 385.804688 185.671875 386.539062 200.558594 C 387.273438 216.648438 387.40625 221.453125 387.40625 262.109375 C 387.40625 302.761719 387.273438 307.566406 386.539062 323.65625 C 385.871094 338.476562 383.398438 346.554688 381.265625 351.960938 C 378.527344 359.035156 375.1875 364.109375 369.847656 369.449219 C 364.507812 374.789062 359.433594 378.0625 352.359375 380.863281 C 347.019531 382.933594 338.941406 385.40625 324.054688 386.140625 C 307.96875 386.875 303.160156 387.007812 262.507812 387.007812 C 221.851562 387.007812 217.046875 386.875 200.957031 386.140625 C 186.140625 385.472656 178.0625 383 172.65625 380.863281 C 165.578125 378.128906 160.503906 374.789062 155.164062 369.449219 C 149.824219 364.109375 146.554688 359.035156 143.75 351.960938 C 141.679688 346.621094 139.210938 338.542969 138.476562 323.65625 C 137.742188 307.566406 137.609375 302.761719 137.609375 262.109375 C 137.609375 221.453125 137.742188 216.648438 138.476562 200.558594 C 139.144531 185.742188 141.613281 177.664062 143.75 172.253906 C 146.488281 165.179688 149.824219 160.105469 155.164062 154.765625 C 160.503906 149.425781 165.578125 146.15625 172.65625 143.351562 C 177.996094 141.28125 186.074219 138.8125 200.957031 138.078125 C 217.046875 137.34375 221.851562 137.210938 262.507812 137.210938 M 262.507812 109.773438 C 221.117188 109.773438 215.980469 109.972656 199.691406 110.707031 C 183.46875 111.441406 172.386719 114.046875 162.707031 117.785156 C 152.695312 121.65625 144.21875 126.863281 135.738281 135.339844 C 127.328125 143.816406 122.121094 152.296875 118.25 162.308594 C 114.511719 171.988281 111.90625 183.070312 111.171875 199.292969 C 110.4375 215.511719 110.238281 220.71875 110.238281 262.042969 C 110.238281 303.429688 110.4375 308.570312 111.171875 324.859375 C 111.90625 341.078125 114.511719 352.160156 118.25 361.839844 C 122.121094 371.851562 127.328125 380.332031 135.804688 388.808594 C 144.285156 397.285156 152.761719 402.492188 162.773438 406.367188 C 172.453125 410.105469 183.535156 412.707031 199.757812 413.441406 C 215.980469 414.175781 221.183594 414.375 262.574219 414.375 C 303.960938 414.375 309.101562 414.175781 325.390625 413.441406 C 341.613281 412.707031 352.691406 410.105469 362.371094 406.367188 C 372.386719 402.492188 380.863281 397.285156 389.339844 388.808594 C 397.820312 380.332031 403.027344 371.851562 406.898438 361.839844 C 410.636719 352.160156 413.238281 341.078125 413.972656 324.859375 C 414.707031 308.636719 414.910156 303.429688 414.910156 262.042969 C 414.910156 220.652344 414.707031 215.511719 413.972656 199.226562 C 413.238281 183.003906 410.636719 171.921875 406.898438 162.242188 C 403.027344 152.230469 397.820312 143.75 389.339844 135.273438 C 380.863281 126.796875 372.386719 121.589844 362.371094 117.71875 C 352.691406 113.980469 341.613281 111.375 325.390625 110.640625 C 309.101562 109.972656 303.894531 109.773438 262.507812 109.773438 " fill-opacity="1" fill-rule="nonzero"/></g><path fill="#ffffff" d="M 262.507812 183.871094 C 219.316406 183.871094 184.335938 218.851562 184.335938 262.042969 C 184.335938 305.230469 219.382812 340.277344 262.574219 340.277344 C 305.765625 340.277344 340.808594 305.296875 340.808594 262.042969 C 340.742188 218.851562 305.699219 183.871094 262.507812 183.871094 M 262.507812 312.84375 C 234.46875 312.84375 211.773438 290.144531 211.773438 262.109375 C 211.773438 234.070312 234.46875 211.375 262.507812 211.375 C 290.542969 211.375 313.242188 234.070312 313.242188 262.109375 C 313.308594 290.078125 290.542969 312.84375 262.507812 312.84375 " fill-opacity="1" fill-rule="nonzero"/><path fill="#ffffff" d="M 362.105469 180.800781 C 362.105469 190.878906 353.894531 199.089844 343.8125 199.089844 C 333.734375 199.089844 325.523438 190.878906 325.523438 180.800781 C 325.523438 170.71875 333.734375 162.507812 343.8125 162.507812 C 353.894531 162.507812 362.105469 170.652344 362.105469 180.800781 " fill-opacity="1" fill-rule="nonzero"/></svg>