<svg xmlns="http://www.w3.org/2000/svg" xmlns:xlink="http://www.w3.org/1999/xlink" width="1080" zoomAndPan="magnify" viewBox="0 0 810 809.999993" height="1080" preserveAspectRatio="xMidYMid meet" version="1.0"><defs><clipPath id="ecad123aa5"><path d="M 0 151.691406 L 810 151.691406 L 810 657.941406 L 0 657.941406 Z M 0 151.691406 " clip-rule="nonzero"/></clipPath><clipPath id="28de5451e1"><path d="M 157 329 L 623 329 L 623 480 L 157 480 Z M 157 329 " clip-rule="nonzero"/></clipPath><clipPath id="1b1fa30770"><path d="M 397.851562 377.578125 C 397.589844 398.503906 416.523438 410.199219 430.777344 417.140625 C 445.4375 424.261719 450.359375 428.835938 450.320312 435.210938 C 450.199219 444.964844 438.613281 449.273438 427.78125 449.375 C 408.867188 449.679688 397.871094 444.273438 389.144531 440.1875 L 382.320312 472.039062 C 391.089844 476.085938 407.328125 479.605469 424.175781 479.769531 C 463.703125 479.769531 489.5625 460.261719 489.683594 430.03125 C 489.847656 391.582031 436.589844 389.558594 437.035156 372.398438 C 437.15625 367.199219 442.117188 361.652344 453.011719 360.257812 C 465.957031 359.042969 478.304688 361.21875 490.050781 366.792969 L 496.652344 336.015625 C 485.300781 331.75 473.5625 329.597656 461.4375 329.558594 C 424.238281 329.558594 398.054688 349.332031 397.851562 377.621094 M 560.214844 332.171875 C 558.5 332.15625 556.820312 332.394531 555.175781 332.886719 C 553.53125 333.375 551.996094 334.09375 550.570312 335.046875 C 549.140625 335.996094 547.886719 337.136719 546.800781 338.460938 C 545.714844 339.789062 544.847656 341.246094 544.199219 342.835938 L 487.742188 477.664062 L 527.230469 477.664062 L 535.085938 455.949219 L 583.363281 455.949219 L 587.917969 477.664062 L 622.726562 477.664062 L 592.351562 332.273438 L 560.214844 332.273438 M 565.746094 371.546875 L 577.125 426.183594 L 545.917969 426.183594 L 565.746094 371.546875 M 349.960938 332.171875 L 318.835938 477.664062 L 356.398438 477.664062 L 387.585938 332.171875 L 349.960938 332.171875 M 294.292969 332.171875 L 255.148438 431.121094 L 239.316406 347.003906 C 238.992188 344.9375 238.320312 342.988281 237.296875 341.164062 C 236.277344 339.335938 234.972656 337.742188 233.378906 336.382812 C 231.789062 335.023438 230.011719 333.980469 228.046875 333.253906 C 226.082031 332.53125 224.054688 332.167969 221.960938 332.171875 L 157.949219 332.171875 L 157.058594 336.398438 C 170.101562 339.253906 185.066406 343.847656 194.117188 348.761719 C 199.644531 351.777344 201.222656 354.410156 203.046875 361.550781 L 233.058594 477.664062 L 272.828125 477.664062 L 333.820312 332.171875 L 294.292969 332.171875 " clip-rule="nonzero"/></clipPath><clipPath id="a0f837eee2"><path d="M 108.195312 347.46875 L 567.101562 178.582031 L 671.511719 461.878906 L 212.625 630.765625 " clip-rule="nonzero"/></clipPath><linearGradient x1="326.91974" gradientTransform="matrix(849.915153, -312.786647, -313.011107, -849.305723, 514493.965557, 2252219.700536)" y1="2530.8301" x2="327.459558" gradientUnits="userSpaceOnUse" y2="2530.8301" id="59f1a3925f"><stop stop-opacity="1" stop-color="rgb(13.299561%, 13.699341%, 34.098816%)" offset="0"/><stop stop-opacity="1" stop-color="rgb(13.304138%, 13.757324%, 34.214783%)" offset="0.0625"/><stop stop-opacity="1" stop-color="rgb(13.313293%, 13.883972%, 34.469604%)" offset="0.0703125"/><stop stop-opacity="1" stop-color="rgb(13.323975%, 14.024353%, 34.750366%)" offset="0.078125"/><stop stop-opacity="1" stop-color="rgb(13.334656%, 14.164734%, 35.031128%)" offset="0.0859375"/><stop stop-opacity="1" stop-color="rgb(13.346863%, 14.305115%, 35.31189%)" offset="0.09375"/><stop stop-opacity="1" stop-color="rgb(13.357544%, 14.445496%, 35.592651%)" offset="0.101563"/><stop stop-opacity="1" stop-color="rgb(13.368225%, 14.585876%, 35.873413%)" offset="0.109375"/><stop stop-opacity="1" stop-color="rgb(13.378906%, 14.726257%, 36.154175%)" offset="0.117188"/><stop stop-opacity="1" stop-color="rgb(13.389587%, 14.866638%, 36.433411%)" offset="0.125"/><stop stop-opacity="1" stop-color="rgb(13.401794%, 15.007019%, 36.714172%)" offset="0.132813"/><stop stop-opacity="1" stop-color="rgb(13.412476%, 15.1474%, 36.994934%)" offset="0.140625"/><stop stop-opacity="1" stop-color="rgb(13.423157%, 15.287781%, 37.275696%)" offset="0.148438"/><stop stop-opacity="1" stop-color="rgb(13.433838%, 15.428162%, 37.556458%)" offset="0.15625"/><stop stop-opacity="1" stop-color="rgb(13.444519%, 15.568542%, 37.837219%)" offset="0.164062"/><stop stop-opacity="1" stop-color="rgb(13.456726%, 15.708923%, 38.117981%)" offset="0.171875"/><stop stop-opacity="1" stop-color="rgb(13.467407%, 15.849304%, 38.397217%)" offset="0.179688"/><stop stop-opacity="1" stop-color="rgb(13.478088%, 15.988159%, 38.677979%)" offset="0.1875"/><stop stop-opacity="1" stop-color="rgb(13.48877%, 16.12854%, 38.95874%)" offset="0.195313"/><stop stop-opacity="1" stop-color="rgb(13.500977%, 16.268921%, 39.239502%)" offset="0.203125"/><stop stop-opacity="1" stop-color="rgb(13.511658%, 16.409302%, 39.520264%)" offset="0.210938"/><stop stop-opacity="1" stop-color="rgb(13.522339%, 16.549683%, 39.801025%)" offset="0.21875"/><stop stop-opacity="1" stop-color="rgb(13.53302%, 16.690063%, 40.081787%)" offset="0.226563"/><stop stop-opacity="1" stop-color="rgb(13.543701%, 16.830444%, 40.361023%)" offset="0.234375"/><stop stop-opacity="1" stop-color="rgb(13.555908%, 16.970825%, 40.641785%)" offset="0.242188"/><stop stop-opacity="1" stop-color="rgb(13.566589%, 17.111206%, 40.922546%)" offset="0.25"/><stop stop-opacity="1" stop-color="rgb(13.577271%, 17.251587%, 41.203308%)" offset="0.257813"/><stop stop-opacity="1" stop-color="rgb(13.587952%, 17.391968%, 41.48407%)" offset="0.265625"/><stop stop-opacity="1" stop-color="rgb(13.598633%, 17.532349%, 41.764832%)" offset="0.273438"/><stop stop-opacity="1" stop-color="rgb(13.61084%, 17.672729%, 42.045593%)" offset="0.28125"/><stop stop-opacity="1" stop-color="rgb(13.621521%, 17.81311%, 42.324829%)" offset="0.289062"/><stop stop-opacity="1" stop-color="rgb(13.632202%, 17.951965%, 42.605591%)" offset="0.296875"/><stop stop-opacity="1" stop-color="rgb(13.642883%, 18.092346%, 42.886353%)" offset="0.304688"/><stop stop-opacity="1" stop-color="rgb(13.653564%, 18.232727%, 43.167114%)" offset="0.3125"/><stop stop-opacity="1" stop-color="rgb(13.665771%, 18.373108%, 43.447876%)" offset="0.320313"/><stop stop-opacity="1" stop-color="rgb(13.676453%, 18.513489%, 43.728638%)" offset="0.328125"/><stop stop-opacity="1" stop-color="rgb(13.687134%, 18.65387%, 44.009399%)" offset="0.335938"/><stop stop-opacity="1" stop-color="rgb(13.697815%, 18.79425%, 44.290161%)" offset="0.34375"/><stop stop-opacity="1" stop-color="rgb(13.708496%, 18.934631%, 44.569397%)" offset="0.351562"/><stop stop-opacity="1" stop-color="rgb(13.720703%, 19.075012%, 44.850159%)" offset="0.359375"/><stop stop-opacity="1" stop-color="rgb(13.731384%, 19.215393%, 45.13092%)" offset="0.367188"/><stop stop-opacity="1" stop-color="rgb(13.742065%, 19.355774%, 45.411682%)" offset="0.375"/><stop stop-opacity="1" stop-color="rgb(13.752747%, 19.496155%, 45.692444%)" offset="0.382813"/><stop stop-opacity="1" stop-color="rgb(13.764954%, 19.636536%, 45.973206%)" offset="0.390625"/><stop stop-opacity="1" stop-color="rgb(13.775635%, 19.776917%, 46.253967%)" offset="0.398438"/><stop stop-opacity="1" stop-color="rgb(13.786316%, 19.915771%, 46.533203%)" offset="0.40625"/><stop stop-opacity="1" stop-color="rgb(13.796997%, 20.056152%, 46.813965%)" offset="0.414063"/><stop stop-opacity="1" stop-color="rgb(13.807678%, 20.196533%, 47.094727%)" offset="0.421875"/><stop stop-opacity="1" stop-color="rgb(13.819885%, 20.336914%, 47.375488%)" offset="0.429688"/><stop stop-opacity="1" stop-color="rgb(13.830566%, 20.477295%, 47.65625%)" offset="0.4375"/><stop stop-opacity="1" stop-color="rgb(13.841248%, 20.617676%, 47.937012%)" offset="0.445313"/><stop stop-opacity="1" stop-color="rgb(13.851929%, 20.758057%, 48.217773%)" offset="0.453125"/><stop stop-opacity="1" stop-color="rgb(13.86261%, 20.898438%, 48.497009%)" offset="0.460938"/><stop stop-opacity="1" stop-color="rgb(13.874817%, 21.038818%, 48.777771%)" offset="0.46875"/><stop stop-opacity="1" stop-color="rgb(13.885498%, 21.179199%, 49.058533%)" offset="0.476562"/><stop stop-opacity="1" stop-color="rgb(13.896179%, 21.31958%, 49.339294%)" offset="0.484375"/><stop stop-opacity="1" stop-color="rgb(13.90686%, 21.459961%, 49.620056%)" offset="0.492188"/><stop stop-opacity="1" stop-color="rgb(13.917542%, 21.600342%, 49.900818%)" offset="0.5"/><stop stop-opacity="1" stop-color="rgb(13.929749%, 21.740723%, 50.18158%)" offset="0.507812"/><stop stop-opacity="1" stop-color="rgb(13.94043%, 21.881104%, 50.460815%)" offset="0.515625"/><stop stop-opacity="1" stop-color="rgb(13.951111%, 22.019958%, 50.741577%)" offset="0.523438"/><stop stop-opacity="1" stop-color="rgb(13.961792%, 22.160339%, 51.022339%)" offset="0.53125"/><stop stop-opacity="1" stop-color="rgb(13.973999%, 22.30072%, 51.303101%)" offset="0.539062"/><stop stop-opacity="1" stop-color="rgb(13.98468%, 22.441101%, 51.583862%)" offset="0.546875"/><stop stop-opacity="1" stop-color="rgb(13.995361%, 22.581482%, 51.864624%)" offset="0.554687"/><stop stop-opacity="1" stop-color="rgb(14.006042%, 22.721863%, 52.145386%)" offset="0.5625"/><stop stop-opacity="1" stop-color="rgb(14.016724%, 22.862244%, 52.424622%)" offset="0.570313"/><stop stop-opacity="1" stop-color="rgb(14.028931%, 23.002625%, 52.705383%)" offset="0.578125"/><stop stop-opacity="1" stop-color="rgb(14.039612%, 23.143005%, 52.986145%)" offset="0.585938"/><stop stop-opacity="1" stop-color="rgb(14.050293%, 23.283386%, 53.266907%)" offset="0.59375"/><stop stop-opacity="1" stop-color="rgb(14.060974%, 23.423767%, 53.547668%)" offset="0.601563"/><stop stop-opacity="1" stop-color="rgb(14.071655%, 23.564148%, 53.82843%)" offset="0.609375"/><stop stop-opacity="1" stop-color="rgb(14.083862%, 23.704529%, 54.109192%)" offset="0.617188"/><stop stop-opacity="1" stop-color="rgb(14.094543%, 23.84491%, 54.389954%)" offset="0.625"/><stop stop-opacity="1" stop-color="rgb(14.105225%, 23.983765%, 54.669189%)" offset="0.632812"/><stop stop-opacity="1" stop-color="rgb(14.115906%, 24.124146%, 54.949951%)" offset="0.640625"/><stop stop-opacity="1" stop-color="rgb(14.126587%, 24.264526%, 55.230713%)" offset="0.648438"/><stop stop-opacity="1" stop-color="rgb(14.138794%, 24.404907%, 55.511475%)" offset="0.65625"/><stop stop-opacity="1" stop-color="rgb(14.149475%, 24.545288%, 55.792236%)" offset="0.664062"/><stop stop-opacity="1" stop-color="rgb(14.160156%, 24.685669%, 56.072998%)" offset="0.671875"/><stop stop-opacity="1" stop-color="rgb(14.170837%, 24.82605%, 56.35376%)" offset="0.679688"/><stop stop-opacity="1" stop-color="rgb(14.183044%, 24.966431%, 56.632996%)" offset="0.6875"/><stop stop-opacity="1" stop-color="rgb(14.193726%, 25.106812%, 56.913757%)" offset="0.695312"/><stop stop-opacity="1" stop-color="rgb(14.204407%, 25.247192%, 57.194519%)" offset="0.703125"/><stop stop-opacity="1" stop-color="rgb(14.215088%, 25.387573%, 57.475281%)" offset="0.710938"/><stop stop-opacity="1" stop-color="rgb(14.225769%, 25.527954%, 57.756042%)" offset="0.71875"/><stop stop-opacity="1" stop-color="rgb(14.237976%, 25.668335%, 58.036804%)" offset="0.726562"/><stop stop-opacity="1" stop-color="rgb(14.248657%, 25.808716%, 58.317566%)" offset="0.734375"/><stop stop-opacity="1" stop-color="rgb(14.259338%, 25.949097%, 58.596802%)" offset="0.742187"/><stop stop-opacity="1" stop-color="rgb(14.27002%, 26.087952%, 58.877563%)" offset="0.75"/><stop stop-opacity="1" stop-color="rgb(14.280701%, 26.228333%, 59.158325%)" offset="0.757813"/><stop stop-opacity="1" stop-color="rgb(14.292908%, 26.368713%, 59.439087%)" offset="0.765625"/><stop stop-opacity="1" stop-color="rgb(14.303589%, 26.509094%, 59.719849%)" offset="0.773438"/><stop stop-opacity="1" stop-color="rgb(14.31427%, 26.649475%, 60.00061%)" offset="0.78125"/><stop stop-opacity="1" stop-color="rgb(14.324951%, 26.789856%, 60.281372%)" offset="0.789062"/><stop stop-opacity="1" stop-color="rgb(14.335632%, 26.930237%, 60.560608%)" offset="0.796875"/><stop stop-opacity="1" stop-color="rgb(14.347839%, 27.070618%, 60.84137%)" offset="0.804688"/><stop stop-opacity="1" stop-color="rgb(14.358521%, 27.210999%, 61.122131%)" offset="0.8125"/><stop stop-opacity="1" stop-color="rgb(14.369202%, 27.351379%, 61.402893%)" offset="0.820312"/><stop stop-opacity="1" stop-color="rgb(14.379883%, 27.49176%, 61.683655%)" offset="0.828125"/><stop stop-opacity="1" stop-color="rgb(14.39209%, 27.632141%, 61.964417%)" offset="0.835938"/><stop stop-opacity="1" stop-color="rgb(14.402771%, 27.772522%, 62.245178%)" offset="0.84375"/><stop stop-opacity="1" stop-color="rgb(14.413452%, 27.912903%, 62.524414%)" offset="0.851562"/><stop stop-opacity="1" stop-color="rgb(14.424133%, 28.051758%, 62.805176%)" offset="0.859375"/><stop stop-opacity="1" stop-color="rgb(14.434814%, 28.192139%, 63.085938%)" offset="0.867188"/><stop stop-opacity="1" stop-color="rgb(14.447021%, 28.33252%, 63.366699%)" offset="0.875"/><stop stop-opacity="1" stop-color="rgb(14.457703%, 28.4729%, 63.647461%)" offset="0.882812"/><stop stop-opacity="1" stop-color="rgb(14.468384%, 28.613281%, 63.928223%)" offset="0.890625"/><stop stop-opacity="1" stop-color="rgb(14.479065%, 28.753662%, 64.208984%)" offset="0.898437"/><stop stop-opacity="1" stop-color="rgb(14.489746%, 28.894043%, 64.489746%)" offset="0.90625"/><stop stop-opacity="1" stop-color="rgb(14.497375%, 28.981018%, 64.663696%)" offset="0.9375"/><stop stop-opacity="1" stop-color="rgb(14.498901%, 28.999329%, 64.698792%)" offset="1"/></linearGradient><clipPath id="1b4835a4fd"><path d="M 0 151.691406 L 809 151.691406 L 809 657 L 0 657 Z M 0 151.691406 " clip-rule="nonzero"/></clipPath><clipPath id="08d99019a3"><path d="M 38.25 151.691406 L 771.75 151.691406 C 781.894531 151.691406 791.625 155.722656 798.796875 162.894531 C 805.96875 170.066406 810 179.796875 810 189.941406 L 810 620.058594 C 810 630.203125 805.96875 639.933594 798.796875 647.105469 C 791.625 654.277344 781.894531 658.308594 771.75 658.308594 L 38.25 658.308594 C 28.105469 658.308594 18.375 654.277344 11.203125 647.105469 C 4.03125 639.933594 0 630.203125 0 620.058594 L 0 189.941406 C 0 179.796875 4.03125 170.066406 11.203125 162.894531 C 18.375 155.722656 28.105469 151.691406 38.25 151.691406 " clip-rule="nonzero"/></clipPath><clipPath id="1c07861fac"><path d="M 34.652344 254.089844 L 774.152344 254.089844 L 774.152344 593.089844 L 34.652344 593.089844 Z M 34.652344 254.089844 " clip-rule="nonzero"/></clipPath><clipPath id="234fa23dc6"><path d="M 48 291 L 748 291 L 748 518 L 48 518 Z M 48 291 " clip-rule="nonzero"/></clipPath><clipPath id="0f20fe47d9"><path d="M 409.625 364.050781 C 409.230469 395.484375 437.648438 413.054688 459.046875 423.480469 C 481.050781 434.179688 488.4375 441.050781 488.375 450.625 C 488.191406 465.277344 470.808594 471.75 454.546875 471.902344 C 426.160156 472.359375 409.65625 464.242188 396.554688 458.101562 L 386.3125 505.949219 C 399.472656 512.027344 423.851562 517.316406 449.136719 517.558594 C 508.464844 517.558594 547.277344 488.257812 547.460938 442.84375 C 547.703125 385.085938 467.769531 382.046875 468.4375 356.269531 C 468.621094 348.457031 476.066406 340.128906 492.417969 338.03125 C 501.957031 337.132812 511.441406 337.519531 520.875 339.183594 C 530.308594 340.851562 539.355469 343.738281 548.007812 347.847656 L 557.917969 301.613281 C 540.878906 295.207031 523.261719 291.972656 505.0625 291.917969 C 449.230469 291.917969 409.929688 321.617188 409.625 364.113281 M 653.324219 295.839844 C 650.746094 295.820312 648.226562 296.175781 645.757812 296.914062 C 643.292969 297.648438 640.984375 298.730469 638.84375 300.15625 C 636.699219 301.585938 634.8125 303.296875 633.183594 305.289062 C 631.554688 307.285156 630.253906 309.472656 629.28125 311.859375 L 544.542969 514.398438 L 603.8125 514.398438 L 615.605469 481.78125 L 688.0625 481.78125 L 694.902344 514.398438 L 747.148438 514.398438 L 701.558594 295.992188 L 653.324219 295.992188 M 661.621094 354.992188 L 678.703125 437.066406 L 631.863281 437.066406 L 661.621094 354.992188 M 337.746094 295.839844 L 291.027344 514.398438 L 347.410156 514.398438 L 394.214844 295.839844 L 337.746094 295.839844 M 254.191406 295.839844 L 195.441406 444.484375 L 171.671875 318.121094 C 171.433594 316.582031 171.058594 315.074219 170.550781 313.597656 C 170.039062 312.125 169.40625 310.707031 168.644531 309.347656 C 167.886719 307.984375 167.011719 306.703125 166.023438 305.496094 C 165.039062 304.289062 163.949219 303.179688 162.765625 302.164062 C 161.582031 301.152344 160.316406 300.25 158.972656 299.460938 C 157.628906 298.671875 156.222656 298.007812 154.761719 297.46875 C 153.300781 296.929688 151.800781 296.523438 150.265625 296.25 C 148.730469 295.976562 147.183594 295.839844 145.625 295.839844 L 49.550781 295.839844 L 48.214844 302.191406 C 67.785156 306.476562 90.246094 313.378906 103.835938 320.765625 C 112.132812 325.292969 114.503906 329.246094 117.238281 339.976562 L 162.28125 514.398438 L 221.972656 514.398438 L 313.519531 295.839844 L 254.191406 295.839844 " clip-rule="nonzero"/></clipPath><clipPath id="d2894fec8e"><path d="M -25.125 318.820312 L 663.65625 65.121094 L 820.367188 490.6875 L 131.613281 744.390625 " clip-rule="nonzero"/></clipPath><linearGradient x1="326.91965" gradientTransform="matrix(1275.659539, -469.868986, -469.806456, -1275.829459, 772029.743332, 3383087.190763)" y1="2530.8301" x2="327.459468" gradientUnits="userSpaceOnUse" y2="2530.8301" id="05d535d323"><stop stop-opacity="1" stop-color="rgb(13.299561%, 13.699341%, 34.098816%)" offset="0"/><stop stop-opacity="1" stop-color="rgb(13.304138%, 13.755798%, 34.211731%)" offset="0.0625"/><stop stop-opacity="1" stop-color="rgb(13.313293%, 13.882446%, 34.463501%)" offset="0.0703125"/><stop stop-opacity="1" stop-color="rgb(13.323975%, 14.021301%, 34.744263%)" offset="0.078125"/><stop stop-opacity="1" stop-color="rgb(13.334656%, 14.161682%, 35.025024%)" offset="0.0859375"/><stop stop-opacity="1" stop-color="rgb(13.345337%, 14.302063%, 35.305786%)" offset="0.09375"/><stop stop-opacity="1" stop-color="rgb(13.357544%, 14.442444%, 35.586548%)" offset="0.101562"/><stop stop-opacity="1" stop-color="rgb(13.368225%, 14.582825%, 35.86731%)" offset="0.109375"/><stop stop-opacity="1" stop-color="rgb(13.378906%, 14.723206%, 36.148071%)" offset="0.117187"/><stop stop-opacity="1" stop-color="rgb(13.389587%, 14.863586%, 36.427307%)" offset="0.125"/><stop stop-opacity="1" stop-color="rgb(13.400269%, 15.003967%, 36.708069%)" offset="0.132812"/><stop stop-opacity="1" stop-color="rgb(13.412476%, 15.144348%, 36.988831%)" offset="0.140625"/><stop stop-opacity="1" stop-color="rgb(13.423157%, 15.284729%, 37.269592%)" offset="0.148438"/><stop stop-opacity="1" stop-color="rgb(13.433838%, 15.42511%, 37.550354%)" offset="0.15625"/><stop stop-opacity="1" stop-color="rgb(13.444519%, 15.565491%, 37.831116%)" offset="0.164062"/><stop stop-opacity="1" stop-color="rgb(13.456726%, 15.705872%, 38.111877%)" offset="0.171875"/><stop stop-opacity="1" stop-color="rgb(13.467407%, 15.846252%, 38.391113%)" offset="0.179687"/><stop stop-opacity="1" stop-color="rgb(13.478088%, 15.985107%, 38.671875%)" offset="0.1875"/><stop stop-opacity="1" stop-color="rgb(13.48877%, 16.125488%, 38.952637%)" offset="0.195312"/><stop stop-opacity="1" stop-color="rgb(13.499451%, 16.265869%, 39.233398%)" offset="0.203125"/><stop stop-opacity="1" stop-color="rgb(13.511658%, 16.40625%, 39.51416%)" offset="0.210937"/><stop stop-opacity="1" stop-color="rgb(13.522339%, 16.546631%, 39.794922%)" offset="0.21875"/><stop stop-opacity="1" stop-color="rgb(13.53302%, 16.687012%, 40.075684%)" offset="0.226562"/><stop stop-opacity="1" stop-color="rgb(13.543701%, 16.827393%, 40.356445%)" offset="0.234375"/><stop stop-opacity="1" stop-color="rgb(13.554382%, 16.967773%, 40.635681%)" offset="0.242187"/><stop stop-opacity="1" stop-color="rgb(13.566589%, 17.108154%, 40.916443%)" offset="0.25"/><stop stop-opacity="1" stop-color="rgb(13.577271%, 17.248535%, 41.197205%)" offset="0.257812"/><stop stop-opacity="1" stop-color="rgb(13.587952%, 17.388916%, 41.477966%)" offset="0.265625"/><stop stop-opacity="1" stop-color="rgb(13.598633%, 17.529297%, 41.758728%)" offset="0.273437"/><stop stop-opacity="1" stop-color="rgb(13.609314%, 17.669678%, 42.03949%)" offset="0.28125"/><stop stop-opacity="1" stop-color="rgb(13.621521%, 17.810059%, 42.320251%)" offset="0.289062"/><stop stop-opacity="1" stop-color="rgb(13.632202%, 17.948914%, 42.599487%)" offset="0.296875"/><stop stop-opacity="1" stop-color="rgb(13.642883%, 18.089294%, 42.880249%)" offset="0.304688"/><stop stop-opacity="1" stop-color="rgb(13.653564%, 18.229675%, 43.161011%)" offset="0.3125"/><stop stop-opacity="1" stop-color="rgb(13.665771%, 18.370056%, 43.441772%)" offset="0.320312"/><stop stop-opacity="1" stop-color="rgb(13.676453%, 18.510437%, 43.722534%)" offset="0.328125"/><stop stop-opacity="1" stop-color="rgb(13.687134%, 18.650818%, 44.003296%)" offset="0.335937"/><stop stop-opacity="1" stop-color="rgb(13.697815%, 18.791199%, 44.284058%)" offset="0.34375"/><stop stop-opacity="1" stop-color="rgb(13.708496%, 18.93158%, 44.563293%)" offset="0.351562"/><stop stop-opacity="1" stop-color="rgb(13.720703%, 19.07196%, 44.844055%)" offset="0.359375"/><stop stop-opacity="1" stop-color="rgb(13.731384%, 19.212341%, 45.124817%)" offset="0.367187"/><stop stop-opacity="1" stop-color="rgb(13.742065%, 19.352722%, 45.405579%)" offset="0.375"/><stop stop-opacity="1" stop-color="rgb(13.752747%, 19.493103%, 45.68634%)" offset="0.382812"/><stop stop-opacity="1" stop-color="rgb(13.763428%, 19.633484%, 45.967102%)" offset="0.390625"/><stop stop-opacity="1" stop-color="rgb(13.775635%, 19.773865%, 46.247864%)" offset="0.398437"/><stop stop-opacity="1" stop-color="rgb(13.786316%, 19.914246%, 46.5271%)" offset="0.40625"/><stop stop-opacity="1" stop-color="rgb(13.796997%, 20.053101%, 46.807861%)" offset="0.414062"/><stop stop-opacity="1" stop-color="rgb(13.807678%, 20.193481%, 47.088623%)" offset="0.421875"/><stop stop-opacity="1" stop-color="rgb(13.818359%, 20.333862%, 47.369385%)" offset="0.429687"/><stop stop-opacity="1" stop-color="rgb(13.830566%, 20.474243%, 47.650146%)" offset="0.4375"/><stop stop-opacity="1" stop-color="rgb(13.841248%, 20.614624%, 47.930908%)" offset="0.445312"/><stop stop-opacity="1" stop-color="rgb(13.851929%, 20.755005%, 48.21167%)" offset="0.453125"/><stop stop-opacity="1" stop-color="rgb(13.86261%, 20.895386%, 48.490906%)" offset="0.460937"/><stop stop-opacity="1" stop-color="rgb(13.873291%, 21.035767%, 48.771667%)" offset="0.46875"/><stop stop-opacity="1" stop-color="rgb(13.885498%, 21.176147%, 49.052429%)" offset="0.476562"/><stop stop-opacity="1" stop-color="rgb(13.896179%, 21.316528%, 49.333191%)" offset="0.484375"/><stop stop-opacity="1" stop-color="rgb(13.90686%, 21.456909%, 49.613953%)" offset="0.492187"/><stop stop-opacity="1" stop-color="rgb(13.917542%, 21.59729%, 49.894714%)" offset="0.5"/><stop stop-opacity="1" stop-color="rgb(13.929749%, 21.737671%, 50.175476%)" offset="0.507812"/><stop stop-opacity="1" stop-color="rgb(13.94043%, 21.878052%, 50.456238%)" offset="0.515625"/><stop stop-opacity="1" stop-color="rgb(13.951111%, 22.016907%, 50.735474%)" offset="0.523437"/><stop stop-opacity="1" stop-color="rgb(13.961792%, 22.157288%, 51.016235%)" offset="0.53125"/><stop stop-opacity="1" stop-color="rgb(13.972473%, 22.297668%, 51.296997%)" offset="0.539062"/><stop stop-opacity="1" stop-color="rgb(13.98468%, 22.438049%, 51.577759%)" offset="0.546875"/><stop stop-opacity="1" stop-color="rgb(13.995361%, 22.57843%, 51.858521%)" offset="0.554687"/><stop stop-opacity="1" stop-color="rgb(14.006042%, 22.718811%, 52.139282%)" offset="0.5625"/><stop stop-opacity="1" stop-color="rgb(14.016724%, 22.859192%, 52.420044%)" offset="0.570312"/><stop stop-opacity="1" stop-color="rgb(14.027405%, 22.999573%, 52.69928%)" offset="0.578125"/><stop stop-opacity="1" stop-color="rgb(14.039612%, 23.139954%, 52.980042%)" offset="0.585937"/><stop stop-opacity="1" stop-color="rgb(14.050293%, 23.280334%, 53.260803%)" offset="0.59375"/><stop stop-opacity="1" stop-color="rgb(14.060974%, 23.420715%, 53.541565%)" offset="0.601562"/><stop stop-opacity="1" stop-color="rgb(14.071655%, 23.561096%, 53.822327%)" offset="0.609375"/><stop stop-opacity="1" stop-color="rgb(14.082336%, 23.701477%, 54.103088%)" offset="0.617187"/><stop stop-opacity="1" stop-color="rgb(14.094543%, 23.841858%, 54.38385%)" offset="0.625"/><stop stop-opacity="1" stop-color="rgb(14.105225%, 23.982239%, 54.663086%)" offset="0.632812"/><stop stop-opacity="1" stop-color="rgb(14.115906%, 24.121094%, 54.943848%)" offset="0.640625"/><stop stop-opacity="1" stop-color="rgb(14.126587%, 24.261475%, 55.224609%)" offset="0.648437"/><stop stop-opacity="1" stop-color="rgb(14.138794%, 24.401855%, 55.505371%)" offset="0.65625"/><stop stop-opacity="1" stop-color="rgb(14.149475%, 24.542236%, 55.786133%)" offset="0.664062"/><stop stop-opacity="1" stop-color="rgb(14.160156%, 24.682617%, 56.066895%)" offset="0.671875"/><stop stop-opacity="1" stop-color="rgb(14.170837%, 24.822998%, 56.347656%)" offset="0.679687"/><stop stop-opacity="1" stop-color="rgb(14.181519%, 24.963379%, 56.626892%)" offset="0.6875"/><stop stop-opacity="1" stop-color="rgb(14.193726%, 25.10376%, 56.907654%)" offset="0.695312"/><stop stop-opacity="1" stop-color="rgb(14.204407%, 25.244141%, 57.188416%)" offset="0.703125"/><stop stop-opacity="1" stop-color="rgb(14.215088%, 25.384521%, 57.469177%)" offset="0.710937"/><stop stop-opacity="1" stop-color="rgb(14.225769%, 25.524902%, 57.749939%)" offset="0.71875"/><stop stop-opacity="1" stop-color="rgb(14.23645%, 25.665283%, 58.030701%)" offset="0.726562"/><stop stop-opacity="1" stop-color="rgb(14.248657%, 25.805664%, 58.311462%)" offset="0.734375"/><stop stop-opacity="1" stop-color="rgb(14.259338%, 25.946045%, 58.590698%)" offset="0.742187"/><stop stop-opacity="1" stop-color="rgb(14.27002%, 26.0849%, 58.87146%)" offset="0.75"/><stop stop-opacity="1" stop-color="rgb(14.280701%, 26.225281%, 59.152222%)" offset="0.757812"/><stop stop-opacity="1" stop-color="rgb(14.291382%, 26.365662%, 59.432983%)" offset="0.765625"/><stop stop-opacity="1" stop-color="rgb(14.303589%, 26.506042%, 59.713745%)" offset="0.773437"/><stop stop-opacity="1" stop-color="rgb(14.31427%, 26.646423%, 59.994507%)" offset="0.78125"/><stop stop-opacity="1" stop-color="rgb(14.324951%, 26.786804%, 60.275269%)" offset="0.789062"/><stop stop-opacity="1" stop-color="rgb(14.335632%, 26.927185%, 60.55603%)" offset="0.796875"/><stop stop-opacity="1" stop-color="rgb(14.347839%, 27.067566%, 60.835266%)" offset="0.804687"/><stop stop-opacity="1" stop-color="rgb(14.358521%, 27.207947%, 61.116028%)" offset="0.8125"/><stop stop-opacity="1" stop-color="rgb(14.369202%, 27.348328%, 61.39679%)" offset="0.820312"/><stop stop-opacity="1" stop-color="rgb(14.379883%, 27.488708%, 61.677551%)" offset="0.828125"/><stop stop-opacity="1" stop-color="rgb(14.390564%, 27.629089%, 61.958313%)" offset="0.835937"/><stop stop-opacity="1" stop-color="rgb(14.402771%, 27.76947%, 62.239075%)" offset="0.84375"/><stop stop-opacity="1" stop-color="rgb(14.413452%, 27.909851%, 62.519836%)" offset="0.851562"/><stop stop-opacity="1" stop-color="rgb(14.424133%, 28.048706%, 62.799072%)" offset="0.859375"/><stop stop-opacity="1" stop-color="rgb(14.434814%, 28.189087%, 63.079834%)" offset="0.867187"/><stop stop-opacity="1" stop-color="rgb(14.445496%, 28.329468%, 63.360596%)" offset="0.875"/><stop stop-opacity="1" stop-color="rgb(14.457703%, 28.469849%, 63.641357%)" offset="0.882812"/><stop stop-opacity="1" stop-color="rgb(14.468384%, 28.610229%, 63.922119%)" offset="0.890625"/><stop stop-opacity="1" stop-color="rgb(14.479065%, 28.75061%, 64.202881%)" offset="0.898438"/><stop stop-opacity="1" stop-color="rgb(14.489746%, 28.890991%, 64.483643%)" offset="0.90625"/><stop stop-opacity="1" stop-color="rgb(14.497375%, 28.979492%, 64.660645%)" offset="0.9375"/><stop stop-opacity="1" stop-color="rgb(14.498901%, 28.999329%, 64.698792%)" offset="1"/></linearGradient></defs><g clip-path="url(#ecad123aa5)"><path fill="#ffffff" d="M 40.5 151.871094 L 769.5 151.871094 C 770.828125 151.871094 772.148438 151.9375 773.46875 152.066406 C 774.789062 152.195312 776.101562 152.390625 777.402344 152.648438 C 778.703125 152.910156 779.988281 153.230469 781.257812 153.613281 C 782.527344 154 783.773438 154.445312 785 154.953125 C 786.222656 155.460938 787.421875 156.027344 788.589844 156.652344 C 789.761719 157.277344 790.898438 157.957031 792 158.691406 C 793.101562 159.429688 794.167969 160.21875 795.191406 161.058594 C 796.21875 161.898438 797.199219 162.789062 798.136719 163.726562 C 799.074219 164.664062 799.964844 165.644531 800.808594 166.667969 C 801.648438 167.695312 802.4375 168.757812 803.175781 169.859375 C 803.910156 170.960938 804.59375 172.097656 805.21875 173.265625 C 805.84375 174.433594 806.410156 175.632812 806.917969 176.855469 C 807.425781 178.082031 807.871094 179.328125 808.257812 180.59375 C 808.640625 181.863281 808.964844 183.148438 809.222656 184.449219 C 809.480469 185.746094 809.675781 187.058594 809.804688 188.375 C 809.933594 189.695312 810 191.019531 810 192.34375 L 810 617.289062 C 810 618.613281 809.933594 619.9375 809.804688 621.253906 C 809.675781 622.574219 809.480469 623.882812 809.222656 625.183594 C 808.964844 626.484375 808.640625 627.769531 808.257812 629.035156 C 807.871094 630.304688 807.425781 631.550781 806.917969 632.777344 C 806.410156 634 805.84375 635.199219 805.21875 636.367188 C 804.59375 637.535156 803.910156 638.671875 803.175781 639.773438 C 802.4375 640.875 801.648438 641.9375 800.808594 642.960938 C 799.964844 643.988281 799.074219 644.96875 798.136719 645.90625 C 797.199219 646.84375 796.21875 647.730469 795.191406 648.574219 C 794.167969 649.414062 793.101562 650.203125 792 650.9375 C 790.898438 651.675781 789.761719 652.355469 788.589844 652.980469 C 787.421875 653.605469 786.222656 654.171875 785 654.679688 C 783.773438 655.1875 782.527344 655.632812 781.257812 656.015625 C 779.988281 656.402344 778.703125 656.722656 777.402344 656.980469 C 776.101562 657.242188 774.789062 657.433594 773.46875 657.566406 C 772.148438 657.695312 770.828125 657.757812 769.5 657.757812 L 40.5 657.757812 C 39.171875 657.757812 37.851562 657.695312 36.53125 657.566406 C 35.210938 657.433594 33.898438 657.242188 32.597656 656.980469 C 31.296875 656.722656 30.011719 656.402344 28.742188 656.015625 C 27.472656 655.632812 26.226562 655.1875 25 654.679688 C 23.777344 654.171875 22.578125 653.605469 21.410156 652.980469 C 20.238281 652.355469 19.101562 651.675781 18 650.9375 C 16.898438 650.203125 15.832031 649.414062 14.808594 648.574219 C 13.78125 647.730469 12.800781 646.84375 11.863281 645.90625 C 10.925781 644.96875 10.035156 643.988281 9.191406 642.960938 C 8.351562 641.9375 7.5625 640.875 6.824219 639.773438 C 6.089844 638.671875 5.40625 637.535156 4.78125 636.367188 C 4.15625 635.199219 3.589844 634 3.082031 632.777344 C 2.574219 631.550781 2.128906 630.304688 1.742188 629.035156 C 1.359375 627.769531 1.035156 626.484375 0.777344 625.183594 C 0.519531 623.882812 0.324219 622.574219 0.195312 621.253906 C 0.0664062 619.9375 0 618.613281 0 617.289062 L 0 192.34375 C 0 191.019531 0.0664062 189.695312 0.195312 188.375 C 0.324219 187.058594 0.519531 185.746094 0.777344 184.449219 C 1.035156 183.148438 1.359375 181.863281 1.742188 180.59375 C 2.128906 179.328125 2.574219 178.082031 3.082031 176.855469 C 3.589844 175.632812 4.15625 174.433594 4.78125 173.265625 C 5.40625 172.097656 6.089844 170.960938 6.824219 169.859375 C 7.5625 168.757812 8.351562 167.695312 9.191406 166.667969 C 10.035156 165.644531 10.925781 164.664062 11.863281 163.726562 C 12.800781 162.789062 13.78125 161.898438 14.808594 161.058594 C 15.832031 160.21875 16.898438 159.429688 18 158.691406 C 19.101562 157.957031 20.238281 157.277344 21.410156 156.652344 C 22.578125 156.027344 23.777344 155.460938 25 154.953125 C 26.226562 154.445312 27.472656 154 28.742188 153.613281 C 30.011719 153.230469 31.296875 152.910156 32.597656 152.648438 C 33.898438 152.390625 35.210938 152.195312 36.53125 152.066406 C 37.851562 151.9375 39.171875 151.871094 40.5 151.871094 Z M 40.5 151.871094 " fill-opacity="1" fill-rule="nonzero"/></g><g clip-path="url(#28de5451e1)"><g clip-path="url(#1b1fa30770)"><g clip-path="url(#a0f837eee2)"><path fill="url(#59f1a3925f)" d="M 212.675781 630.675781 L 108.3125 347.5 L 567.109375 178.652344 L 671.476562 461.828125 Z M 212.675781 630.675781 " fill-rule="nonzero"/></g></g></g><g clip-path="url(#1b4835a4fd)"><g clip-path="url(#08d99019a3)"><path fill="#ffffff" d="M 0 151.691406 L 808.734375 151.691406 L 808.734375 656.675781 L 0 656.675781 Z M 0 151.691406 " fill-opacity="1" fill-rule="nonzero"/></g></g><g clip-path="url(#1c07861fac)"><path fill="#ffffff" d="M -126.734375 24.996094 L 967.441406 24.996094 C 969.433594 24.996094 971.417969 25.09375 973.398438 25.289062 C 975.382812 25.484375 977.347656 25.773438 979.300781 26.164062 C 981.253906 26.550781 983.183594 27.035156 985.085938 27.613281 C 986.992188 28.191406 988.863281 28.859375 990.703125 29.621094 C 992.542969 30.382812 994.339844 31.234375 996.097656 32.171875 C 997.851562 33.113281 999.558594 34.132812 1001.214844 35.242188 C 1002.867188 36.347656 1004.464844 37.53125 1006.003906 38.792969 C 1007.542969 40.058594 1009.015625 41.394531 1010.425781 42.800781 C 1011.832031 44.210938 1013.167969 45.683594 1014.429688 47.222656 C 1015.695312 48.761719 1016.878906 50.359375 1017.984375 52.015625 C 1019.089844 53.667969 1020.113281 55.375 1021.050781 57.132812 C 1021.988281 58.886719 1022.839844 60.683594 1023.601562 62.523438 C 1024.363281 64.363281 1025.035156 66.238281 1025.613281 68.140625 C 1026.191406 70.046875 1026.671875 71.976562 1027.0625 73.929688 C 1027.449219 75.882812 1027.742188 77.851562 1027.9375 79.832031 C 1028.132812 81.8125 1028.230469 83.800781 1028.230469 85.789062 L 1028.230469 724.144531 C 1028.230469 726.136719 1028.132812 728.121094 1027.9375 730.101562 C 1027.742188 732.085938 1027.449219 734.050781 1027.0625 736.003906 C 1026.671875 737.957031 1026.191406 739.886719 1025.613281 741.792969 C 1025.035156 743.695312 1024.363281 745.570312 1023.601562 747.410156 C 1022.839844 749.25 1021.988281 751.046875 1021.050781 752.800781 C 1020.113281 754.558594 1019.089844 756.265625 1017.984375 757.917969 C 1016.878906 759.574219 1015.695312 761.171875 1014.429688 762.710938 C 1013.167969 764.25 1011.832031 765.726562 1010.425781 767.132812 C 1009.015625 768.539062 1007.542969 769.875 1006.003906 771.140625 C 1004.464844 772.402344 1002.867188 773.585938 1001.214844 774.691406 C 999.558594 775.800781 997.851562 776.820312 996.097656 777.761719 C 994.339844 778.699219 992.542969 779.550781 990.703125 780.3125 C 988.863281 781.074219 986.992188 781.742188 985.085938 782.320312 C 983.183594 782.898438 981.253906 783.382812 979.300781 783.769531 C 977.347656 784.160156 975.382812 784.453125 973.398438 784.648438 C 971.417969 784.84375 969.433594 784.9375 967.441406 784.9375 L -126.734375 784.9375 C -128.722656 784.9375 -130.710938 784.84375 -132.691406 784.648438 C -134.671875 784.453125 -136.640625 784.160156 -138.59375 783.769531 C -140.542969 783.382812 -142.472656 782.898438 -144.378906 782.320312 C -146.285156 781.742188 -148.15625 781.074219 -149.996094 780.3125 C -151.835938 779.550781 -153.632812 778.699219 -155.386719 777.761719 C -157.144531 776.820312 -158.847656 775.800781 -160.503906 774.691406 C -162.160156 773.585938 -163.757812 772.402344 -165.296875 771.140625 C -166.835938 769.875 -168.308594 768.539062 -169.714844 767.132812 C -171.125 765.726562 -172.460938 764.25 -173.722656 762.710938 C -174.984375 761.171875 -176.167969 759.574219 -177.277344 757.917969 C -178.382812 756.265625 -179.402344 754.558594 -180.34375 752.800781 C -181.28125 751.046875 -182.132812 749.25 -182.894531 747.410156 C -183.65625 745.570312 -184.324219 743.695312 -184.902344 741.792969 C -185.480469 739.886719 -185.964844 737.957031 -186.351562 736.003906 C -186.742188 734.050781 -187.03125 732.085938 -187.226562 730.101562 C -187.421875 728.121094 -187.519531 726.136719 -187.519531 724.144531 L -187.519531 85.789062 C -187.519531 83.800781 -187.421875 81.8125 -187.226562 79.832031 C -187.03125 77.851562 -186.742188 75.882812 -186.351562 73.929688 C -185.964844 71.976562 -185.480469 70.046875 -184.902344 68.140625 C -184.324219 66.238281 -183.65625 64.363281 -182.894531 62.523438 C -182.132812 60.683594 -181.28125 58.886719 -180.34375 57.132812 C -179.402344 55.375 -178.382812 53.667969 -177.277344 52.015625 C -176.167969 50.359375 -174.984375 48.761719 -173.722656 47.222656 C -172.460938 45.683594 -171.125 44.210938 -169.714844 42.800781 C -168.308594 41.394531 -166.835938 40.058594 -165.296875 38.792969 C -163.757812 37.53125 -162.160156 36.347656 -160.503906 35.242188 C -158.847656 34.132812 -157.144531 33.113281 -155.386719 32.171875 C -153.632812 31.234375 -151.835938 30.382812 -149.996094 29.621094 C -148.15625 28.859375 -146.285156 28.191406 -144.378906 27.613281 C -142.472656 27.035156 -140.542969 26.550781 -138.59375 26.164062 C -136.640625 25.773438 -134.671875 25.484375 -132.691406 25.289062 C -130.710938 25.09375 -128.722656 24.996094 -126.734375 24.996094 Z M -126.734375 24.996094 " fill-opacity="1" fill-rule="nonzero"/></g><g clip-path="url(#234fa23dc6)"><g clip-path="url(#0f20fe47d9)"><g clip-path="url(#d2894fec8e)"><path fill="url(#05d535d323)" d="M 131.691406 744.253906 L -24.953125 318.867188 L 663.671875 65.222656 L 820.3125 490.609375 Z M 131.691406 744.253906 " fill-rule="nonzero"/></g></g></g></svg>